<?xml version="1.0" standalone="no"?>
<!DOCTYPE svg PUBLIC "-//W3C//DTD SVG 1.1//EN" "http://www.w3.org/Graphics/SVG/1.1/DTD/svg11.dtd" >
<svg xmlns="http://www.w3.org/2000/svg">
<metadata></metadata>
<defs>
<font id="QuattrocentoSansRegular" horiz-adv-x="1314" >
<font-face units-per-em="2048" ascent="1638" descent="-410" />
<missing-glyph horiz-adv-x="501" />
<glyph unicode="&#xfb01;" horiz-adv-x="1071" d="M51 846v76l158 18q0 357 98 485q47 66 101.5 83.5t131.5 17.5q133 0 298 -103l-70 -123q-92 57 -155.5 88t-116 31t-79 -19.5t-41.5 -62.5q-24 -73 -24 -272v-123h221v-96h-221v-846h-143v846h-158zM772 0v942h143v-942h-143z" />
<glyph unicode="&#xfb02;" horiz-adv-x="1099" d="M51 846v76l158 18q0 355 125 485q87 101 205 101q173 0 317 -53l72 43v-1516h-144v1362q-112 57 -284 57q-148 0 -148 -354v-123h221v-96h-221v-846h-143v846h-158z" />
<glyph horiz-adv-x="0" />
<glyph unicode="&#xd;" horiz-adv-x="501" />
<glyph horiz-adv-x="0" />
<glyph horiz-adv-x="0" />
<glyph unicode=" "  horiz-adv-x="501" />
<glyph unicode="&#x09;" horiz-adv-x="501" />
<glyph unicode="&#xa0;" horiz-adv-x="501" />
<glyph unicode="!" horiz-adv-x="528" d="M166 1397h199l-54 -1090h-96zM170 72q0 39 27.5 68.5t66.5 29.5t68.5 -29.5t29.5 -68.5t-29.5 -67t-68.5 -28t-66.5 28t-27.5 67z" />
<glyph unicode="&#x22;" horiz-adv-x="684" d="M121 1499h166l-49 -442h-74zM401 1499h166l-49 -442h-74z" />
<glyph unicode="#" horiz-adv-x="1257" d="M78 455l20 108h240l53 244h-252l21 106h254l90 426h131l-90 -426h258l90 426h131l-90 -426h248l-21 -106h-250l-53 -244h262l-20 -108h-264l-97 -455h-131l97 455h-259l-96 -455h-131l96 455h-237zM469 563h258l53 244h-258z" />
<glyph unicode="$" horiz-adv-x="1083" d="M88 88l43 150q74 -51 154 -87t207 -40v530q-192 65 -272 138q-99 91 -99 241q0 236 223 310q68 22 148 28v178h122v-176q177 -12 310 -76l-43 -158q-93 82 -267 97v-449q186 -65 253 -122.5t100.5 -125t33.5 -164t-30.5 -165t-83.5 -114.5q-98 -85 -273 -103v-177h-122 v174q-221 7 -404 111zM270 1026q0 -112 122 -168q42 -20 100 -41v406q-222 -21 -222 -197zM614 117q123 16 176.5 74.5t53.5 126t-19.5 108.5t-51.5 72q-58 58 -159 98v-479z" />
<glyph unicode="%" horiz-adv-x="1675" d="M80 977q0 166 80 273q83 112 221 112t222 -113q79 -106 79 -264q0 -157 -80 -266q-86 -117 -229 -117q-140 0 -219 111q-74 103 -74 264zM195 989q0 -147 47 -221t133 -74q98 0 149 84q45 76 45 204t-47 208t-145 80q-182 0 -182 -281zM295 -49l948 1464h133l-948 -1464 h-133zM997 360q0 167 80 274q83 111 221 111q140 0 223 -112q78 -105 78 -264q0 -158 -79 -267q-85 -116 -230 -116q-139 0 -219 110q-74 102 -74 264zM1112 373q0 -147 47 -221t133 -74q145 0 184 175q11 52 11 112q0 129 -47 208.5t-146 79.5q-182 0 -182 -280z" />
<glyph unicode="&#x26;" horiz-adv-x="1435" d="M129 360q0 116 69 226q71 114 205 172q-59 70 -91.5 139.5t-32.5 152.5t23.5 139t65.5 95q84 78 214 78q140 0 284 -90l-41 -146q-47 45 -112.5 74t-130 29t-112.5 -42t-48 -125t26.5 -138.5t77.5 -108.5l467 -483q33 78 33 175t-68 204l-102 -9v97l514 75v-126l-274 -25 q63 -117 63 -246t-69 -246l225 -231h-172l-131 133q-158 -158 -410 -158q-224 0 -354 118q-119 108 -119 267zM285 396q0 -83 25.5 -132t69.5 -84q87 -69 254.5 -69t285.5 116l-426 437q-96 -33 -152.5 -109t-56.5 -159z" />
<glyph unicode="'" horiz-adv-x="403" d="M121 1499h166l-49 -442h-74z" />
<glyph unicode="(" horiz-adv-x="636" d="M102 670q0 262 108.5 495.5t305.5 413.5l78 -27q-244 -273 -291 -625q-16 -120 -16 -230.5t7 -212t38 -214.5q69 -260 260 -483l-76 -27q-197 176 -305.5 412t-108.5 498z" />
<glyph unicode=")" horiz-adv-x="636" d="M43 1552l78 27q197 -180 305.5 -413.5t108.5 -495.5t-109 -497.5t-305 -412.5l-76 27q272 321 298 697q7 102 7 212.5t-16.5 230.5t-53.5 227q-72 213 -237 398z" />
<glyph unicode="*" horiz-adv-x="899" d="M125 991l252 109l-252 110l68 119l219 -166l-29 275h135l-33 -275l222 166l67 -119l-252 -110l252 -109l-65 -117l-224 162l31 -270h-133l29 270l-222 -162z" />
<glyph unicode="+" horiz-adv-x="1017" d="M104 436v107h351v331h106v-331h352v-107h-352v-352h-106v352h-351z" />
<glyph unicode="," horiz-adv-x="497" d="M139 -160l80 150h-51v184h162v-215l-150 -158z" />
<glyph unicode="-" horiz-adv-x="995" d="M152 436v107h692v-107h-692z" />
<glyph unicode="." horiz-adv-x="481" d="M145 72q0 39 27 68.5t67 29.5t69.5 -29.5t29.5 -68.5t-29.5 -67t-69.5 -28t-67 28t-27 67z" />
<glyph unicode="/" horiz-adv-x="868" d="M74 -117l569 1555h154l-570 -1555h-153z" />
<glyph unicode="0" horiz-adv-x="1329" d="M121 659q0 301 143 497q151 206 403 206q130 0 231 -55.5t171 -150.5q141 -191 141 -482q0 -287 -144 -484q-156 -215 -415 -215q-255 0 -397 205q-133 190 -133 479zM291 665q0 -268 95 -411t279 -143t280.5 154.5t96.5 402.5q0 395 -214 518q-72 41 -169.5 41t-168 -40 t-114.5 -113q-85 -141 -85 -409z" />
<glyph unicode="1" horiz-adv-x="649" d="M51 1126l395 226v-1352h-153v1077l-197 -94z" />
<glyph unicode="2" horiz-adv-x="1042" d="M96 0v143q92 119 205 232.5t211 222.5t163.5 215.5t65.5 214.5q0 199 -231 199q-144 0 -287 -61q-43 -19 -71 -40l-37 136q195 100 399 100q177 0 288 -92q109 -90 109 -240q0 -115 -63.5 -225.5t-158.5 -220t-207.5 -220t-211.5 -221.5h656v-143h-830z" />
<glyph unicode="3" horiz-adv-x="1095" d="M76 102l41 138q157 -129 338 -129q354 0 354 301q0 117 -79 185.5t-265 68.5h-55v116h63q129 0 199.5 65.5t70.5 167t-49 157t-172 55.5q-139 0 -265 -61q-38 -19 -62 -40l-37 136q175 100 354.5 100t290 -89t110.5 -263q0 -86 -56 -159t-138 -116q260 -87 260 -340 q0 -182 -125 -295q-138 -125 -379 -125q-231 0 -399 127z" />
<glyph unicode="4" horiz-adv-x="1040" d="M63 430v143l572 779h164v-779h141v-143h-141v-430h-154v430h-582zM238 573h407v555z" />
<glyph unicode="5" horiz-adv-x="1101" d="M96 102l43 144q76 -59 160 -97t219.5 -38t223 76.5t87.5 224.5q0 126 -68 187q-38 34 -99.5 52.5t-187.5 18.5t-257 -52l-59 31l75 713h695v-143h-566l-53 -437q148 33 251 33t182 -25.5t136 -74.5q119 -104 119 -289q0 -194 -123 -316q-138 -135 -378 -135 q-232 0 -400 127z" />
<glyph unicode="6" horiz-adv-x="1128" d="M129 610q0 143 23.5 277.5t81.5 238.5q131 234 403 234q142 0 251 -50q42 -20 73 -48l-35 -136q-124 101 -287 101q-196 0 -290 -159q-77 -130 -77 -337v-29q0 -14 2 -30l7 -2q84 151 335 151q228 0 333 -151q77 -112 77 -264q0 -172 -100 -290q-118 -141 -334 -141 q-360 0 -438 375q-25 117 -25 260zM309 392q0 -132 74 -212t205 -80t204.5 81.5t73.5 226.5q0 197 -136 264q-50 24 -124 24q-154 0 -225.5 -86t-71.5 -218z" />
<glyph unicode="7" horiz-adv-x="935" d="M82 1219v143h829v-143q-213 -213 -389 -555q-182 -355 -182 -582v-44q0 -20 2 -38h-178q-2 18 -2 40v40q0 237 192 590q155 286 387 549h-659z" />
<glyph unicode="8" horiz-adv-x="1142" d="M119 362q0 154 65.5 248.5t182.5 128.5v9q-72 27 -126.5 100.5t-54.5 185.5q0 147 100.5 237.5t282.5 90.5t284.5 -87t102.5 -235q0 -109 -52 -183.5t-128 -106.5v-9q119 -27 183.5 -123t64.5 -233q0 -284 -252 -378q-86 -32 -206 -32t-206 34t-139 91q-102 108 -102 262 zM285 371q0 -129 72.5 -200t211.5 -71t212 71t73 200q0 203 -154 275q-55 26 -132 26t-131 -25.5t-88 -67.5q-64 -79 -64 -208zM350 1020q0 -96 56.5 -160.5t162.5 -64.5t162.5 64.5t56.5 158.5t-48 154.5t-170 60.5t-171 -58.5t-49 -154.5z" />
<glyph unicode="9" horiz-adv-x="1130" d="M104 930q0 169 100 290q117 140 335 140q359 0 437 -376q25 -118 25 -260t-23.5 -276.5t-81.5 -239.5q-130 -233 -402 -233q-142 0 -251 51q-42 19 -73 48l35 135q123 -100 287 -100q195 0 289 159q77 129 77 336v30q0 13 -2 30l-6 2q-84 -152 -336 -152q-228 0 -333 152 q-77 111 -77 264zM264 928q0 -198 136 -264q51 -25 124 -25q154 0 225.5 86t71.5 218t-73.5 212t-204.5 80t-205 -81t-74 -226z" />
<glyph unicode=":" horiz-adv-x="495" d="M152 72q0 39 26.5 68.5t66.5 29.5t69.5 -29.5t29.5 -68.5t-29.5 -67t-69.5 -28t-66.5 28t-26.5 67zM152 835q0 40 26.5 68.5t66.5 28.5t69.5 -29t29.5 -68.5t-29.5 -67.5t-69.5 -28t-66.5 28t-26.5 68z" />
<glyph unicode=";" horiz-adv-x="520" d="M154 -160l79 150h-51v184h162v-215l-149 -158zM170 835q0 40 26.5 68.5t66.5 28.5t69.5 -29t29.5 -68.5t-29.5 -67.5t-69.5 -28t-66.5 28t-26.5 68z" />
<glyph unicode="&#x3c;" horiz-adv-x="835" d="M78 487v11l584 397l36 -129l-403 -268v-11l405 -272l-36 -131z" />
<glyph unicode="=" horiz-adv-x="1003" d="M156 281v106h692v-106h-692zM156 592v106h692v-106h-692z" />
<glyph unicode="&#x3e;" horiz-adv-x="835" d="M135 215l406 272v11l-404 268l37 129l584 -397v-11l-586 -403z" />
<glyph unicode="?" horiz-adv-x="843" d="M82 1305q55 43 137 71.5t162 28.5t146.5 -24.5t112.5 -67.5q95 -89 95 -240q0 -101 -77 -224q-33 -54 -71 -109.5t-72 -119.5q-79 -150 -79 -311h-131q0 237 141 445q95 139 118.5 198.5t23.5 132t-52.5 130t-158.5 57.5q-108 0 -207 -62q-31 -20 -51 -41zM281 75 q0 40 27.5 67.5t66.5 27.5t68.5 -27.5t29.5 -67.5t-29.5 -69t-68.5 -29t-66.5 29t-27.5 69z" />
<glyph unicode="@" horiz-adv-x="1480" d="M117 369q0 117 42 249t130 244.5t224 186t302 73.5t271.5 -45t173.5 -117q135 -140 135 -344q0 -188 -115 -322q-121 -142 -303 -142q-127 0 -145 88q-5 28 -5 61q-35 -70 -87 -110.5t-94 -40.5t-72.5 15t-55.5 46q-55 70 -55 173t34.5 177t90.5 126q120 110 266 110 q49 0 107.5 -16.5t93.5 -51.5l-76 -364q-8 -46 -8 -73.5t12 -41.5t56 -14t88 31.5t76 83.5q67 109 67 257q0 171 -102 285q-118 133 -332 133q-145 0 -256 -58.5t-184 -152.5q-150 -191 -150 -446q0 -239 148 -366q130 -112 343 -112q258 0 447 164v-102q-107 -96 -308 -143 q-75 -17 -178.5 -17t-212 41t-190.5 116q-178 163 -178 419zM598 369q0 -68 18.5 -99.5t46.5 -31.5t57.5 21.5t55.5 54.5q62 79 78 155l49 248q-12 12 -65.5 12t-101.5 -37t-78 -91q-60 -105 -60 -232z" />
<glyph unicode="A" d="M10 0l541 1352h186l594 -1352h-174l-199 455h-604l-180 -455h-164zM412 598h483l-254 582z" />
<glyph unicode="B" horiz-adv-x="1144" d="M203 0v1352q165 10 331 10t277 -89t111 -261.5t-140 -263.5q123 -41 192.5 -129.5t69.5 -223.5q0 -182 -124 -295q-139 -125 -403 -125q-152 0 -314 25zM356 117q81 -6 179 -6q166 0 252.5 76.5t86.5 224.5q0 254 -344 254q-92 0 -174 -4v-545zM356 784q29 -2 60 -2h65 q129 0 200 65.5t71 167t-49.5 157t-157 55.5t-189.5 -4v-439z" />
<glyph unicode="C" d="M117 662q0 303 171 494q184 206 505 206q239 0 411 -88l-43 -148q-155 101 -381 101q-260 0 -384 -151q-109 -134 -109 -398q0 -567 489 -567q129 0 237.5 36.5t174.5 90.5l41 -138q-209 -125 -459 -125q-319 0 -494 205q-159 185 -159 482z" />
<glyph unicode="D" horiz-adv-x="1441" d="M203 0v1352h10q245 10 413 10q312 0 492 -154q207 -186 207 -546q0 -297 -159 -482q-81 -94 -203.5 -149.5t-326 -55.5t-433.5 25zM356 123q129 -12 310 -12q489 0 489 567q0 264 -109 398q-124 151 -384 151q-207 0 -306 -6v-1098z" />
<glyph unicode="E" horiz-adv-x="1069" d="M203 0v1352h741v-144h-588v-420h451v-143h-451v-502h629v-143h-782z" />
<glyph unicode="F" horiz-adv-x="983" d="M203 0v1352h731v-144h-578v-420h428v-143h-428v-645h-153z" />
<glyph unicode="G" horiz-adv-x="1376" d="M117 662q0 303 171 494q184 206 505 206q243 0 432 -88l-43 -148q-155 101 -402 101q-260 0 -384 -151q-109 -134 -109 -398q0 -567 489 -567q166 0 314 65v381h153v-444q-208 -138 -473 -138q-319 0 -494 205q-159 185 -159 482z" />
<glyph unicode="H" horiz-adv-x="1441" d="M203 0v1352h153v-584h729v584h154v-1352h-154v625h-729v-625h-153z" />
<glyph unicode="I" horiz-adv-x="559" d="M203 0v1352h153v-1352h-153z" />
<glyph unicode="J" horiz-adv-x="557" d="M-29 -207q201 0 225 273q7 73 7 143v1143h153v-1145q0 -229 -87 -371q-95 -155 -269 -155z" />
<glyph unicode="K" horiz-adv-x="1224" d="M203 0v1352h153v-639q189 130 412 394q102 122 188 245h177q-187 -275 -463 -551q-44 -44 -80 -76l627 -725h-191l-549 627l-121 -92v-535h-153z" />
<glyph unicode="L" horiz-adv-x="995" d="M203 0v1352h153v-1209h605v-143h-758z" />
<glyph unicode="M" horiz-adv-x="1726" d="M203 0v1352h207l458 -1159l459 1159h197v-1352h-154v1022l-414 -1022h-184l-416 1024v-1024h-153z" />
<glyph unicode="N" horiz-adv-x="1441" d="M203 0v1352h186l696 -1108v1108h154v-1352h-186l-697 1106v-1106h-153z" />
<glyph unicode="O" horiz-adv-x="1548" d="M115 659q0 302 172 497q182 206 488 206q159 0 282 -55.5t207 -150.5q170 -192 170 -482q0 -291 -169 -484q-187 -215 -505 -215q-312 0 -486 205q-159 189 -159 479zM285 680q0 -283 123 -426t366.5 -143t367.5 154.5t124 406.5t-124 403.5t-374 151.5q-483 0 -483 -547 z" />
<glyph unicode="P" horiz-adv-x="1083" d="M203 0v1352h8q165 10 286.5 10t211.5 -27.5t155 -82.5q135 -117 135 -324q0 -181 -115 -296q-124 -124 -354 -124q-98 0 -174 6v-514h-153zM356 649q74 -6 168 -6q152 0 228.5 77t76.5 224q0 283 -311 283q-88 0 -162 -4v-574z" />
<glyph unicode="Q" horiz-adv-x="1554" d="M119 659q0 302 172 497q182 206 487 206q308 0 490 -206q170 -192 170 -482q0 -280 -159 -472q-171 -208 -474 -225q72 -8 140.5 -33.5t138 -52t141 -48t151.5 -21.5t172 39l-39 -131q-64 -33 -150.5 -33t-168.5 28.5t-159 62.5t-149.5 62.5t-140.5 28.5q-138 0 -252 -84 l-28 96q99 77 239 86q-277 19 -437 221q-144 183 -144 461zM289 663q0 -268 123.5 -410t369 -142t367 155.5t121.5 407.5q0 391 -277 512q-94 41 -224 41t-221 -40t-148 -114q-111 -142 -111 -410z" />
<glyph unicode="R" horiz-adv-x="1218" d="M203 0v1352q180 10 298 10t208 -25.5t155 -74.5q135 -104 135 -289q0 -131 -73.5 -233.5t-227.5 -143.5l519 -596h-191l-506 578q-90 0 -164 6v-584h-153zM356 717q37 -4 79 -4h89q152 0 228.5 70.5t76.5 191t-68.5 186.5t-240.5 66q-90 0 -164 -4v-506z" />
<glyph unicode="S" horiz-adv-x="1128" d="M100 88l43 150q96 -66 153 -87q112 -40 221.5 -40t175 16t106.5 46q78 57 78 159q0 171 -233 258q-62 24 -137 49t-146.5 57.5t-122.5 77.5q-105 94 -105 246q0 173 126 262q113 80 310 80q219 0 387 -78l-43 -158q-115 101 -352 101q-278 0 -278 -201q0 -94 81 -146 q51 -32 194 -80.5t216.5 -80t131.5 -77.5q128 -100 128 -282q0 -195 -150 -298q-127 -87 -337 -87q-245 0 -447 113z" />
<glyph unicode="T" horiz-adv-x="1091" d="M37 1208v144h1018v-144h-432v-1208h-154v1208h-432z" />
<glyph unicode="U" horiz-adv-x="1409" d="M188 455v897h154v-828q0 -221 97.5 -317t269.5 -96t270 96t98 317v828h144v-897q0 -212 -125 -339q-137 -139 -387 -139q-271 0 -403 139q-118 123 -118 339z" />
<glyph unicode="V" horiz-adv-x="1318" d="M-14 1352h174l514 -1180l469 1180h164l-537 -1352h-195z" />
<glyph unicode="W" horiz-adv-x="2213" d="M-2 1352h174l455 -1157l395 1157h174l420 -1153l412 1153h163l-481 -1352h-194l-410 1118l-381 -1118h-195z" />
<glyph unicode="X" horiz-adv-x="1323" d="M31 0l536 698l-506 654h183l422 -547l421 547h177l-510 -662l536 -690h-182l-453 584l-448 -584h-176z" />
<glyph unicode="Y" horiz-adv-x="1159" d="M-23 1352h183l428 -650l413 650h179l-523 -797v-555h-153v547z" />
<glyph unicode="Z" horiz-adv-x="1134" d="M88 0v143l754 1065h-723v144h897v-144l-754 -1065h785v-143h-959z" />
<glyph unicode="[" horiz-adv-x="585" d="M184 -195v1729h328v-86h-195v-1557h195v-86h-328z" />
<glyph unicode="\" horiz-adv-x="864" d="M72 1438h149l570 -1555h-150z" />
<glyph unicode="]" horiz-adv-x="585" d="M74 -109h194v1557h-194v86h327v-1729h-327v86z" />
<glyph unicode="^" horiz-adv-x="712" d="M117 1161l6 15l225 202h17l225 -202l6 -15l-12 -39l-15 -6l-213 125l-213 -125l-14 6z" />
<glyph unicode="_" horiz-adv-x="1001" d="M57 0h887v-106h-887v106z" />
<glyph unicode="`" horiz-adv-x="448" d="M0 1325q0 25 18.5 45.5t53.5 22.5l370 -207l7 -15l-13 -41l-16 -6l-412 158q-8 18 -8 43z" />
<glyph unicode="a" horiz-adv-x="1019" d="M82 251q0 118 59.5 187.5t145.5 104.5q135 55 348 55h92v25q0 78 -21.5 118.5t-59.5 66.5q-64 44 -194.5 44t-267.5 -82l-32 123q137 80 327 80q391 0 391 -332v-641h-112l-17 168h-8q-52 -80 -157 -136q-109 -57 -234 -57t-192.5 79t-67.5 197zM233 260q0 -80 44 -122 t123 -42t173.5 53.5t153.5 153.5v191h-18q-215 0 -302.5 -31t-130.5 -77t-43 -126z" />
<glyph unicode="b" horiz-adv-x="1177" d="M160 0v1516h143v-750q27 88 117 147.5t211 59.5t202.5 -41t136.5 -110q109 -137 109 -353q0 -208 -102 -344q-113 -150 -325 -150q-117 0 -211.5 58.5t-143.5 134.5h-8l-17 -168h-112zM303 303q59 -98 153.5 -152.5t182.5 -54.5t141.5 33t85.5 85q62 98 62 249 q0 172 -82 281q-82 108 -223 108q-109 0 -196 -65.5t-124 -182.5v-301z" />
<glyph unicode="c" horiz-adv-x="1024" d="M98 479q0 212 115 345q128 149 373 149q98 0 192 -22.5t152 -59.5l-35 -121q-47 35 -135 62.5t-177 27.5t-151.5 -30.5t-103.5 -81.5q-78 -98 -78 -256q0 -172 89 -283q97 -121 259 -121q82 0 169 35t144 88l29 -133q-57 -37 -156.5 -70t-215.5 -33t-205 41t-147 110 q-118 140 -118 353z" />
<glyph unicode="d" horiz-adv-x="1177" d="M98 469q0 214 110 353q119 151 327 151q137 0 225 -59.5t114 -147.5v750h144v-1516h-113l-16 168h-8q-49 -76 -143.5 -134.5t-212 -58.5t-195.5 41t-129 109q-103 137 -103 344zM250 463q0 -242 147 -334q53 -33 141 -33t183.5 53.5t152.5 153.5v301 q-37 117 -123.5 182.5t-177 65.5t-146.5 -28.5t-95 -79.5q-82 -109 -82 -281z" />
<glyph unicode="e" horiz-adv-x="1058" d="M96 471q0 211 126 353q132 149 360 149q180 0 278 -91t98 -257q0 -94 -18 -123h-690v-21q0 -166 82 -276q90 -121 252 -121q126 0 266 78q37 20 65 41l25 -117q-187 -111 -373 -111q-223 0 -350 149q-121 142 -121 347zM264 610h559q2 10 2 18v19q0 100 -75 157 q-70 54 -190 54t-194.5 -70.5t-101.5 -177.5z" />
<glyph unicode="f" horiz-adv-x="610" d="M51 846v76l158 18q0 353 84 485q69 101 215 101q108 0 178 -35l-35 -121q-10 0 -58 16q-94 33 -130.5 33t-57 -17.5t-31.5 -57.5q-22 -73 -22 -267v-135h221v-96h-221v-846h-143v846h-158z" />
<glyph unicode="g" horiz-adv-x="1040" d="M66 -236q0 80 59 156q55 72 137 103v8q-84 39 -84 106q0 43 32 78t79 68v8q-98 39 -141.5 124t-43.5 174t27 156.5t77 118.5q107 109 281 109q117 0 197 -41q189 4 301 37l10 -8l-14 -113l-10 -10l-187 8l-2 -6q53 -43 78 -113t25 -136.5t-25.5 -128t-75.5 -107.5 q-108 -101 -288 -101l-70 2q-43 -14 -64.5 -38.5t-21.5 -43.5q0 -44 117 -55l198 -21q138 -12 228 -82q94 -74 94 -192q0 -59 -27 -122q-54 -129 -227 -182q-94 -28 -207.5 -28t-196.5 21.5t-139 59.5q-116 78 -116 191zM211 -213.5q0 -75.5 83 -121.5t224 -46 q216 0 293 103q25 34 25 81q0 92 -99.5 132.5t-304.5 54.5q-89 0 -156 -66q-65 -62 -65 -137.5zM250 610q0 -102 62 -173q71 -81 184 -81q59 0 103 19.5t75 51.5q63 65 63 165q0 105 -64 185q-71 89 -188 89q-110 0 -177 -84q-58 -73 -58 -172z" />
<glyph unicode="h" horiz-adv-x="1116" d="M160 0v1516h143v-750q27 86 116 146.5t226 60.5q222 0 294 -177q26 -63 26 -155v-641h-144v623q0 125 -55 177t-123.5 52t-119 -16.5t-93.5 -47.5q-90 -66 -127 -184v-604h-143z" />
<glyph unicode="i" horiz-adv-x="462" d="M129 1285q0 42 29.5 75t71.5 33t75 -33t33 -75t-33 -71.5t-75 -29.5t-71.5 29.5t-29.5 71.5zM160 0v942h143v-942h-143z" />
<glyph unicode="j" horiz-adv-x="462" d="M-88 -403q12 -6 64 -7h1q51 0 91 40q41 40 62 100q30 88 30 266v946h143v-948q0 -224 -78 -366q-85 -156 -235 -156q-33 0 -45 6zM129 1285q0 42 29.5 75t71.5 33t75 -33t33 -75t-33 -71.5t-75 -29.5t-71.5 29.5t-29.5 71.5z" />
<glyph unicode="k" horiz-adv-x="970" d="M160 0v1516h143v-971l414 397h164l-336 -332l401 -610h-164l-338 512l-141 -141v-371h-143z" />
<glyph unicode="l" horiz-adv-x="487" d="M172 0v1516h143v-1516h-143z" />
<glyph unicode="m" horiz-adv-x="1759" d="M160 0v942h112l17 -176h8q27 86 112 146.5t214 60.5t212 -54.5t105 -152.5q69 141 224 190q55 17 121 17t124.5 -17.5t102.5 -56.5q98 -87 98 -258v-641h-144v623q0 125 -57 177t-152 52t-179.5 -64.5t-121.5 -183.5v-604h-143v623q0 125 -57.5 177t-152.5 52t-179 -64.5 t-121 -183.5v-604h-143z" />
<glyph unicode="n" horiz-adv-x="1116" d="M160 0v942h112l17 -176h8q27 86 119 146.5t229 60.5q222 0 294 -177q26 -63 26 -155v-641h-144v623q0 123 -55 176t-123.5 53t-119 -16.5t-93.5 -47.5q-90 -66 -127 -184v-604h-143z" />
<glyph unicode="o" horiz-adv-x="1148" d="M98 475q0 213 116 349q126 149 361 149q123 0 213.5 -42t148.5 -113q114 -138 114 -353q0 -214 -113 -345q-124 -145 -356 -145q-238 0 -367 151q-117 137 -117 349zM250 481q0 -167 79 -276q88 -121 249 -121q84 0 144 30.5t100 83.5q77 101 77 265q0 169 -80 275 q-90 120 -252 120q-156 0 -241 -112q-76 -101 -76 -265z" />
<glyph unicode="p" horiz-adv-x="1177" d="M160 -532v1474h112l17 -176h8q140 207 388 207q85 0 163 -41t129 -108q102 -136 102 -345q0 -214 -109 -353q-120 -151 -327 -151q-137 0 -225 59.5t-115 147.5v-714h-143zM303 344q34 -110 134 -182q92 -66 184 -66t145 29t89 80q73 103 73 264q0 257 -165 351 q-56 32 -144 32t-173.5 -53.5t-142.5 -153.5v-301z" />
<glyph unicode="q" horiz-adv-x="1177" d="M98 477q0 210 103 347q51 67 127 108t161 41t143 -18.5t104 -46.5q90 -56 145 -142h8l16 176h113v-1474h-144v714q-27 -88 -114.5 -147.5t-210.5 -59.5t-205 41t-136 110q-110 141 -110 351zM250 469q0 -160 72 -264q76 -109 215 -109q172 0 284 144q35 45 53 104v301 q-57 100 -142 153.5t-173 53.5t-144.5 -32t-92.5 -85q-72 -104 -72 -266z" />
<glyph unicode="r" horiz-adv-x="731" d="M160 0v942h112l17 -207h8q48 162 172 219q43 19 90 19t90 -13.5t62 -33.5l-43 -135q-73 40 -121.5 40t-85.5 -22.5t-68 -60.5q-65 -81 -90 -197v-551h-143z" />
<glyph unicode="s" horiz-adv-x="903" d="M96 78l37 133q74 -68 164 -98.5t177 -30.5t140.5 50t53.5 106q0 58 -16 86q-37 62 -128 84l-196 49q-224 53 -224 241q0 125 93.5 200t248.5 75q80 0 172.5 -21.5t155.5 -62.5l-39 -123q-41 35 -122 63.5t-178 28.5t-141 -36t-44 -97q0 -53 24 -78q48 -54 132 -72 l145 -32q150 -31 219 -119q47 -60 47 -134t-25.5 -130t-73.5 -96q-105 -89 -274 -89q-109 0 -200.5 32t-147.5 71z" />
<glyph unicode="t" horiz-adv-x="641" d="M45 846v76l162 20l31 285h108v-285h221v-96h-221v-653q0 -66 19.5 -86.5t60.5 -20.5q80 0 149 49l29 -108q-109 -50 -195 -50t-122.5 18.5t-54.5 49.5q-29 48 -29 143v658h-158z" />
<glyph unicode="u" horiz-adv-x="1114" d="M150 301v641h143v-623q0 -223 196 -223q171 0 271 138q33 45 51 104v604h143v-942h-112l-17 176h-8q-27 -86 -119 -143.5t-229 -57.5q-224 0 -293 171q-26 63 -26 155z" />
<glyph unicode="v" horiz-adv-x="1067" d="M14 942h156l367 -807l366 807h150l-428 -942h-183z" />
<glyph unicode="w" horiz-adv-x="1683" d="M33 942h151l295 -803l295 803h152l276 -803l314 803h145l-367 -942h-194l-256 737l-271 -737h-194z" />
<glyph unicode="x" horiz-adv-x="1058" d="M37 0l405 481l-385 461h174l299 -358l297 358h174l-387 -457l408 -485h-174l-322 383l-315 -383h-174z" />
<glyph unicode="y" horiz-adv-x="1062" d="M-4 942h170l375 -784l336 784h161l-432 -950q-31 -66 -74 -155t-102 -169q-142 -192 -319 -192q-28 0 -43 6l-27 135q18 -6 51 -6q83 0 147 46q126 91 228 374z" />
<glyph unicode="z" horiz-adv-x="854" d="M86 0v123l498 698h-478v121h644v-119l-502 -702h522v-121h-684z" />
<glyph unicode="{" horiz-adv-x="583" d="M74 639v61q94 3 128 101q19 52 19 168l-2 157l-2 140q0 144 49 210q62 80 226 80l4 -43q-84 -7 -112 -68q-22 -47 -22 -140l3 -140l2 -153q0 -301 -193 -342q193 -41 193 -342l-2 -154l-3 -139q0 -94 18 -131q33 -71 116 -78l-4 -43q-165 0 -226 81q-49 66 -49 210l4 303 q0 110 -16.5 157.5t-46 75t-84.5 29.5z" />
<glyph unicode="|" horiz-adv-x="491" d="M182 -233v1806h127v-1806h-127z" />
<glyph unicode="}" horiz-adv-x="583" d="M88 -174q115 10 129 132q4 36 4 77l-4 293q0 299 193 342q-193 41 -193 342l4 293q0 95 -17 132q-34 69 -116 76l4 43q164 0 226 -80q49 -66 49 -210l-2 -140l-3 -157q0 -112 16 -161q36 -105 132 -108v-61q-131 -5 -144 -180q-4 -45 -4 -82l3 -159l2 -144 q0 -144 -49 -210q-61 -81 -226 -81z" />
<glyph unicode="~" horiz-adv-x="1015" d="M154 414q0 41 36 81q70 76 150 76l367 -18q35 0 70.5 8t62.5 45l24 -16q0 -6 -10 -32t-32 -54q-56 -72 -138 -72l-391 19q-51 0 -71.5 -13.5t-41.5 -38.5z" />
<glyph unicode="&#xa1;" horiz-adv-x="491" d="M147 -446l50 1089h96l53 -1089h-199zM152 879q0 39 27.5 66.5t66.5 27.5t68.5 -27.5t29.5 -66.5t-29.5 -69t-68.5 -30t-66.5 30t-27.5 69z" />
<glyph unicode="&#xa2;" horiz-adv-x="1036" d="M96 449q0 187 102 307q111 134 328 153v273h123v-275q181 -13 279 -78l-35 -120q-79 59 -244 84v-703q161 22 260 121l29 -133q-120 -79 -289 -98v-261h-123v258q-210 15 -323 153q-107 131 -107 319zM248 458q0 -65 17.5 -126.5t52.5 -110.5q75 -103 208 -127v701 q-142 -19 -214 -115q-64 -87 -64 -222z" />
<glyph unicode="&#xa3;" horiz-adv-x="1161" d="M70 33q288 126 288 479v31h-200v106h192q-10 94 -24.5 184.5t-14.5 176t35 155.5t92 114q106 83 262 83q94 0 180.5 -29.5t139.5 -70.5l-37 -136q-41 41 -119 71t-149 30t-111.5 -17.5t-63.5 -48.5q-44 -57 -44 -144.5t13 -176t19 -191.5h285v-106h-281 q-4 -104 -43.5 -220t-121.5 -212l4 -7q89 -6 206 -33.5t182.5 -40t124.5 -12.5q99 0 191 39l-39 -149q-77 -41 -158.5 -41t-153 21.5t-142 46t-143 46t-167 21.5t-174.5 -65z" />
<glyph unicode="&#xa4;" horiz-adv-x="1189" d="M113 883l61 61l164 -162q126 90 258.5 90t247.5 -90l166 160l61 -59l-162 -164q90 -121 90 -252.5t-88 -247.5l164 -164l-63 -61l-166 162q-240 -183 -504 0l-164 -162l-59 61l160 164q-90 111 -90.5 248.5t92.5 251.5zM291 469q0 -127 89 -216t216 -89q126 0 213 89 q88 90 88 216q0 127 -88 215q-90 90 -214 90q-62 0 -117.5 -23.5t-97.5 -64.5q-89 -87 -89 -217z" />
<glyph unicode="&#xa5;" horiz-adv-x="1329" d="M63 1352h183l428 -650l413 650h179l-404 -615h234v-106h-303l-50 -76v-33h353v-106h-353v-416h-153v416h-352v106h352v25l-55 84h-297v106h227z" />
<glyph unicode="&#xa6;" horiz-adv-x="499" d="M186 -233v794h127v-794h-127zM186 778v795h127v-795h-127z" />
<glyph unicode="&#xa7;" horiz-adv-x="901" d="M94 762q0 78 36 148.5t95 115.5q-25 55 -24.5 129t28 130t71.5 93q88 74 202 74q59 0 124.5 -22.5t110.5 -55.5l-51 -137q-78 86 -192 86q-61 0 -109.5 -38t-48.5 -103t35 -112.5t87 -90.5t113.5 -86t113.5 -91q122 -113 122 -241q0 -78 -36 -149.5t-95 -114.5 q24 -70 24 -136.5t-27.5 -122.5t-71.5 -93q-88 -74 -202 -74q-59 0 -124.5 22.5t-110.5 55.5l51 137q78 -86 193 -86q61 0 109 37.5t48 103t-34.5 113t-87 90.5t-114 86t-113.5 91q-122 113 -122 241zM221 818q0 -75 44 -126t107.5 -98t133 -98.5t121.5 -116.5q53 49 53 124 t-45 126t-108.5 99t-133 98.5t-119.5 115.5q-53 -49 -53 -124z" />
<glyph unicode="&#xa8;" horiz-adv-x="450" d="M0 1291q0 38 24.5 65.5t59.5 27.5t60.5 -27.5t25.5 -65.5t-25.5 -63.5t-60.5 -25.5t-59.5 25.5t-24.5 63.5zM281 1291q0 38 24.5 65.5t59.5 27.5t60.5 -27.5t25.5 -65.5t-26 -63.5t-60 -25.5q-35 0 -59.5 25.5t-24.5 63.5z" />
<glyph unicode="&#xa9;" horiz-adv-x="1484" d="M121 725q0 255 181 434q182 180 439 180q129 0 243 -48t198 -132q182 -182 182 -434q0 -129 -49 -242.5t-134 -196.5t-201 -131.5t-245 -48.5t-240.5 49.5t-194.5 133.5t-131 196.5t-48 239.5zM217 725q0 -224 151 -380q149 -155 365 -155q227 0 381 154t154 381 q0 219 -153 376q-150 154 -374 154q-225 0 -373 -154q-151 -156 -151 -376zM408 729q0 237 180 311q63 27 142 27q163 0 253 -57l-25 -105q-33 25 -95 43.5t-120.5 18.5t-98.5 -18.5t-64 -49.5q-48 -60 -48 -163t54.5 -177t163.5 -74q59 0 119.5 23.5t101.5 62.5l18 -114 q-41 -27 -110.5 -49.5t-150.5 -22.5t-141.5 27.5t-100.5 73.5q-78 90 -78 243z" />
<glyph unicode="&#xaa;" horiz-adv-x="763" d="M123 904.5q0 70.5 36 113.5t87 64q84 36 209 36h55v15q0 70 -43 103.5t-122 33.5t-161 -49l-20 73q89 54 196 54q167 0 228 -111q22 -39 22 -94v-387h-82l-10 100h-8q-29 -47 -91.5 -82t-138 -35t-116.5 47.5t-41 118zM221 911q0 -88 90 -88q49 0 106.5 34t92.5 93v99 h-10q-199 0 -254 -63q-25 -28 -25 -75z" />
<glyph unicode="&#xab;" horiz-adv-x="991" d="M106 487v11l275 362h162l-295 -362v-11l295 -362h-164zM438 487v11l275 362h161l-294 -362v-11l294 -362h-163z" />
<glyph unicode="&#xac;" horiz-adv-x="1294" d="M156 592v106h983v-458h-109v352h-874z" />
<glyph unicode="&#xad;" horiz-adv-x="997" d="M152 436l4 107h688l-4 -107h-688z" />
<glyph unicode="&#xae;" horiz-adv-x="1484" d="M121 725q0 255 181 434q182 180 439 180q129 0 243 -48t198 -132q182 -182 182 -434q0 -129 -49 -242.5t-134 -196.5t-201 -131.5t-245 -48.5t-240.5 49.5t-194.5 133.5t-131 196.5t-48 239.5zM217 725q0 -224 151 -380q149 -155 365 -155q227 0 381 154t154 381 q0 219 -153 376q-150 154 -374 154q-225 0 -373 -154q-151 -156 -151 -376zM537 412v673q88 5 158.5 5t117.5 -9.5t81 -30.5q71 -45 71 -151q0 -63 -43 -113.5t-119 -70.5l207 -303h-113l-203 297h-59v-297h-98zM635 782q18 -2 39 -2h43q68 0 106.5 33t38.5 94 q0 105 -147 105l-80 -2v-228z" />
<glyph unicode="&#xb0;" horiz-adv-x="733" d="M117 1112q0 98 65 166q66 70 187 70t184 -72t63 -170q0 -96 -61 -159q-66 -68 -190 -68t-190 71q-58 63 -58 162zM213 1112q0 -64 38 -110t115 -46t112.5 42t35.5 108t-37 112t-116 46t-113.5 -44t-34.5 -108z" />
<glyph unicode="&#xb1;" horiz-adv-x="989" d="M168 143v109h653v-109h-653zM168 610v109h272v213h107v-213h274v-109h-274v-235h-107v235h-272z" />
<glyph unicode="&#xb2;" horiz-adv-x="768" d="M133 612v86q49 61 112.5 117.5t120 113t96.5 114t40 118.5q0 73 -60 107q-22 12 -67 12t-99.5 -31.5t-89.5 -77.5l-22 91q109 100 219.5 100t167.5 -55.5t57 -133.5t-31.5 -136t-82 -113.5t-113 -109.5t-123.5 -116h358v-86h-483z" />
<glyph unicode="&#xb3;" horiz-adv-x="731" d="M115 680l24 82q43 -35 80 -56.5t117.5 -21.5t126 45t45.5 114.5t-40 105.5t-153 36h-24v70h31q147 0 147 125q0 45 -22.5 72.5t-103.5 27.5t-157 -59l-22 79q94 62 191.5 62t156.5 -49t59 -144q0 -45 -34.5 -82.5t-81.5 -60.5q155 -50 155 -184q0 -164 -158 -220 q-55 -20 -128.5 -20t-117.5 20.5t-91 57.5z" />
<glyph unicode="&#xb4;" horiz-adv-x="448" d="M0 1171l6 15l369 207q35 -2 54.5 -22.5t19.5 -45t-9 -43.5l-413 -158l-15 6z" />
<glyph unicode="&#xb5;" horiz-adv-x="1181" d="M82 -227q82 155 108 238q48 158 48 290v641h143v-623q0 -223 197 -223q170 0 270 138q33 45 51 104v604h143v-942h-112l-17 176h-8q-27 -86 -119 -143.5t-234.5 -57.5t-221.5 72l-6 -27q-35 -152 -111 -307z" />
<glyph unicode="&#xb6;" horiz-adv-x="1091" d="M72 928q0 209 134 324q128 110 355 110q108 0 328 -10v-1528h-92v1403h-111v-1403h-102v684h-43q-230 0 -355 124q-114 115 -114 296z" />
<glyph unicode="&#xb7;" horiz-adv-x="495" d="M152 498q0 39 27.5 68.5t66.5 29.5t68.5 -29.5t29.5 -68.5t-29.5 -67t-68.5 -28t-66.5 28t-27.5 67z" />
<glyph unicode="&#xb8;" horiz-adv-x="413" d="M0 -365l27 48h14q62 -25 141 -25q111 0 111 82q0 94 -107 94q-44 0 -98 -14l-18 22l104 158h70l-62 -104q35 8 88.5 8t98.5 -42t45 -91.5t-17.5 -80t-47.5 -54.5q-67 -52 -161 -52q-86 0 -186 39z" />
<glyph unicode="&#xb9;" horiz-adv-x="507" d="M88 1227l254 135v-750h-111v586l-116 -57z" />
<glyph unicode="&#xba;" horiz-adv-x="798" d="M115 1051q0 125 75 209q80 88 209 88q68 0 121 -25t90 -67q74 -84 74 -212q0 -120 -70 -199q-79 -89 -215 -89q-140 0 -215 91q-69 85 -69 204zM219 1053q0 -90 44 -151.5t138 -61.5t135.5 57t41.5 146t-44.5 151.5t-140.5 62.5q-174 0 -174 -204z" />
<glyph unicode="&#xbb;" horiz-adv-x="991" d="M117 125l295 362v11l-295 362h162l274 -362v-11l-272 -362h-164zM449 125l294 362v11l-294 362h161l275 -362v-11l-273 -362h-163z" />
<glyph unicode="&#xbc;" horiz-adv-x="1456" d="M72 1227l254 135v-750h-111v586l-117 -57zM162 -49l948 1464h133l-948 -1464h-133zM895 225v86l301 437h98v-437h74v-86h-74v-227h-92v227h-307zM999 311h203v316z" />
<glyph unicode="&#xbd;" horiz-adv-x="1464" d="M76 1227l254 135v-750h-111v586l-117 -57zM125 -49l948 1464h133l-948 -1464h-133zM889 -4v86q49 61 112.5 117.5t120 113t96 113.5t39.5 119q0 74 -59 107q-22 12 -67 12t-99.5 -32t-89.5 -77l-22 90q109 100 219.5 100t167.5 -55t57 -133t-32 -136.5t-82 -113.5 t-112.5 -109.5t-123.5 -115.5h358v-86h-483z" />
<glyph unicode="&#xbe;" horiz-adv-x="1536" d="M76 678l24 82q43 -35 80 -56.5t118 -21.5t126 45t45 114.5t-40 105.5t-153 36h-24v70h31q147 0 147 125q0 45 -22.5 72.5t-103.5 27.5t-157 -59l-22 79q94 62 191.5 62t156.5 -49t59 -144q0 -45 -34.5 -82.5t-81.5 -60.5q155 -50 155 -184q0 -164 -159 -220 q-54 -20 -127.5 -20t-117.5 20.5t-91 57.5zM270 -49l949 1464h133l-949 -1464h-133zM975 225v86l301 437h98v-437h74v-86h-74v-227h-92v227h-307zM1079 311h203v316z" />
<glyph unicode="&#xbf;" horiz-adv-x="823" d="M94 -123q0 101 77 225q34 54 72 109t71 119q79 152 79 311h131q0 -241 -141 -445q-92 -133 -116.5 -196t-24.5 -135t52 -129.5t159 -57.5q60 0 118 22q93 34 140 81l37 -135q-55 -43 -137.5 -72t-162 -29t-146 24.5t-112.5 68.5q-96 89 -96 239zM356 876q0 40 30 68.5 t69 28.5t66.5 -28.5t27.5 -68.5t-27.5 -68t-66.5 -28t-69 28t-30 68z" />
<glyph unicode="&#xc0;" d="M10 0l541 1352h186l594 -1352h-174l-199 455h-604l-180 -455h-164zM412 598h483l-254 582zM438 1671q0 25 18.5 44.5t53.5 21.5l371 -205l4 -14l-11 -41l-16 -7l-412 158q-8 18 -8 43z" />
<glyph unicode="&#xc1;" d="M10 0l541 1352h186l594 -1352h-174l-199 455h-604l-180 -455h-164zM412 598h483l-254 582zM438 1518l6 14l369 205q35 -2 53.5 -21.5t18.5 -39.5q0 -33 -6 -48l-414 -158l-14 7z" />
<glyph unicode="&#xc2;" d="M10 0l541 1352h186l594 -1352h-174l-199 455h-604l-180 -455h-164zM412 598h483l-254 582zM428 1507l6 15l225 202h17l225 -202l6 -15l-12 -41l-14 -6l-213 127l-213 -127l-15 6z" />
<glyph unicode="&#xc3;" d="M10 0l541 1352h186l594 -1352h-174l-199 455h-604l-180 -455h-164zM344 1540q46 156 186 156q86 0 140 -10q94 -19 141 -19t82 8t63 45l25 -16q-21 -103 -107 -144q-30 -14 -92.5 -14t-147.5 14.5t-143.5 14.5t-79 -13.5t-40.5 -37.5zM412 598h483l-254 582z" />
<glyph unicode="&#xc4;" d="M10 0l541 1352h186l594 -1352h-174l-199 455h-604l-180 -455h-164zM412 598h483l-254 582zM418 1625q0 38 24.5 65.5t59.5 27.5t60.5 -27.5t25.5 -65.5t-25.5 -63.5t-60.5 -25.5t-59.5 25.5t-24.5 63.5zM739 1625q0 38 24.5 65.5t58.5 27.5t59.5 -27.5t25.5 -65.5 t-25.5 -63.5t-59.5 -25.5t-58.5 25.5t-24.5 63.5z" />
<glyph unicode="&#xc5;" d="M10 0l529 1321q-74 38 -74 112t49 121.5t129 47.5t128 -49.5t48 -120t-69 -111.5l581 -1321h-174l-199 455h-604l-180 -455h-164zM412 598h483l-254 582zM545 1446q0 -41 29.5 -74t70.5 -33t66.5 31t25.5 71t-27.5 69.5t-70.5 29.5t-68.5 -26.5t-25.5 -67.5z" />
<glyph unicode="&#xc6;" horiz-adv-x="1554" d="M-14 0l721 1352h725v-144h-486v-420h348v-143h-348v-502h527v-143h-680v455h-400l-239 -455h-168zM469 598h324v606z" />
<glyph unicode="&#xc7;" d="M117 662q0 303 171 494q184 206 505 206q239 0 411 -88l-43 -148q-155 101 -381 101q-260 0 -384 -151q-109 -134 -109 -398q0 -567 489 -567q129 0 237.5 36.5t174.5 90.5l41 -138q-193 -116 -436 -125l-50 -79q36 8 68 8q72 0 117 -42t45 -91.5t-16.5 -80t-46.5 -54.5 q-65 -52 -160 -52q-92 0 -187 39l-2 12l27 48h14q62 -25 141 -25q109 0 109 82q0 55 -30.5 74.5t-75.5 19.5t-99 -14l-16 22l88 135q-293 15 -456 219q-146 182 -146 466z" />
<glyph unicode="&#xc8;" horiz-adv-x="1069" d="M203 0v1352h741v-144h-588v-420h451v-143h-451v-502h629v-143h-782zM344 1671q0 25 18.5 44.5t53.5 21.5l370 -205l7 -14l-13 -41l-16 -7l-412 158q-8 18 -8 43z" />
<glyph unicode="&#xc9;" horiz-adv-x="1069" d="M203 0v1352h741v-144h-588v-420h451v-143h-451v-502h629v-143h-782zM365 1518l6 14l370 205q35 -2 53.5 -21.5t18.5 -44t-8 -43.5l-414 -158l-14 7z" />
<glyph unicode="&#xca;" horiz-adv-x="1069" d="M203 0v1352h741v-144h-588v-420h451v-143h-451v-502h629v-143h-782zM348 1507l6 15l226 202h16l225 -202l6 -15l-12 -41l-14 -6l-213 127l-213 -127l-15 6z" />
<glyph unicode="&#xcb;" horiz-adv-x="1069" d="M203 0v1352h741v-144h-588v-420h451v-143h-451v-502h629v-143h-782zM324 1625q0 38 24.5 65.5t59.5 27.5t60.5 -27.5t25.5 -65.5t-26 -63.5t-60 -25.5q-35 0 -59.5 25.5t-24.5 63.5zM645 1625q0 38 24.5 65.5t59.5 27.5t60.5 -27.5t25.5 -65.5t-25.5 -63.5t-60.5 -25.5 t-59.5 25.5t-24.5 63.5z" />
<glyph unicode="&#xcc;" horiz-adv-x="559" d="M31 1671q0 25 18.5 44.5t52.5 21.5l371 -205l6 -14l-12 -41l-14 -7l-414 158q-8 18 -8 43zM203 0v1352h153v-1352h-153z" />
<glyph unicode="&#xcd;" horiz-adv-x="559" d="M72 1518l6 14l371 205q35 -2 53 -21.5t18 -44t-8 -43.5l-412 -158l-16 7zM203 0v1352h153v-1352h-153z" />
<glyph unicode="&#xce;" horiz-adv-x="559" d="M37 1507l6 15l225 202h15l227 -202l6 -15l-12 -41l-17 -6l-211 127l-213 -127l-16 6zM203 0v1352h153v-1352h-153z" />
<glyph unicode="&#xcf;" horiz-adv-x="559" d="M39 1625q0 38 24.5 65.5t59.5 27.5t60.5 -27.5t25.5 -65.5t-25.5 -63.5t-60.5 -25.5t-59.5 25.5t-24.5 63.5zM203 0v1352h153v-1352h-153zM360 1625q0 38 25 65.5t59 27.5q35 0 60.5 -27.5t25.5 -65.5t-25.5 -63.5t-60.5 -25.5t-59.5 25.5t-24.5 63.5z" />
<glyph unicode="&#xd0;" horiz-adv-x="1445" d="M29 668v90h178v594h10q245 10 413 10q312 0 492 -154q207 -186 207 -546q0 -297 -159 -482q-80 -94 -203 -149.5t-326.5 -55.5t-433.5 25v668h-178zM360 123q129 -12 310 -12q489 0 489 567q0 264 -109 398q-59 71 -153 111t-266 40t-271 -6v-463h359v-90h-359v-545z" />
<glyph unicode="&#xd1;" horiz-adv-x="1441" d="M203 0v1352h174l708 -1112v1112h154v-1352h-174l-709 1110v-1110h-153zM375 1540q46 156 186 156q86 0 140 -10q94 -19 141 -19t81.5 8t63.5 45l25 -16q-21 -103 -107 -144q-31 -14 -93.5 -14t-147 14.5t-143 14.5t-79 -13.5t-41.5 -37.5z" />
<glyph unicode="&#xd2;" horiz-adv-x="1548" d="M115 659q0 302 172 497q182 206 488 206q159 0 282 -55.5t207 -150.5q170 -192 170 -482q0 -291 -169 -484q-187 -215 -505 -215q-312 0 -486 205q-159 189 -159 479zM285 680q0 -283 123 -426t366.5 -143t367.5 154.5t124 406.5t-124 403.5t-374 151.5q-483 0 -483 -547 zM492 1671q0 25 18 44.5t53 21.5l369 -205l6 -14l-10 -41l-17 -7l-411 158q-8 18 -8 43z" />
<glyph unicode="&#xd3;" horiz-adv-x="1548" d="M115 659q0 302 172 497q182 206 488 206q159 0 282 -55.5t207 -150.5q170 -192 170 -482q0 -291 -169 -484q-187 -215 -505 -215q-312 0 -486 205q-159 189 -159 479zM285 680q0 -283 123 -426t366.5 -143t367.5 154.5t124 406.5t-124 403.5t-374 151.5q-483 0 -483 -547 zM629 1518l6 14l369 205q35 -2 53 -21.5t18 -43t-6 -44.5l-414 -158l-16 7z" />
<glyph unicode="&#xd4;" horiz-adv-x="1548" d="M115 659q0 302 172 497q182 206 488 206q159 0 282 -55.5t207 -150.5q170 -192 170 -482q0 -291 -169 -484q-187 -215 -505 -215q-312 0 -486 205q-159 189 -159 479zM285 680q0 -283 123 -426t366.5 -143t367.5 154.5t124 406.5t-124 403.5t-374 151.5q-483 0 -483 -547 zM555 1507l6 15l225 202h17l225 -202l6 -15l-12 -41l-14 -6l-213 127l-213 -127l-15 6z" />
<glyph unicode="&#xd5;" horiz-adv-x="1548" d="M115 659q0 302 172 497q182 206 488 206q159 0 282 -55.5t207 -150.5q170 -192 170 -482q0 -291 -169 -484q-187 -215 -505 -215q-312 0 -486 205q-159 189 -159 479zM285 680q0 -283 123 -426t366.5 -143t367.5 154.5t124 406.5t-124 403.5t-374 151.5q-483 0 -483 -547 zM459 1540q46 156 186 156q86 0 140 -10q94 -19 141 -19t81.5 8t63.5 45l25 -16q-21 -103 -107 -144q-31 -14 -93.5 -14t-147 14.5t-143 14.5t-79 -13.5t-41.5 -37.5z" />
<glyph unicode="&#xd6;" horiz-adv-x="1548" d="M115 659q0 302 172 497q182 206 488 206q159 0 282 -55.5t207 -150.5q170 -192 170 -482q0 -291 -169 -484q-187 -215 -505 -215q-312 0 -486 205q-159 189 -159 479zM285 680q0 -283 123 -426t366.5 -143t367.5 154.5t124 406.5t-124 403.5t-374 151.5q-483 0 -483 -547 zM530 1625q0 38 25 65.5t59 27.5q35 0 60.5 -27.5t25.5 -65.5t-25.5 -63.5t-60.5 -25.5t-59.5 25.5t-24.5 63.5zM852 1625q0 38 24.5 65.5t59.5 27.5t60.5 -27.5t25.5 -65.5t-25.5 -63.5t-60.5 -25.5t-59.5 25.5t-24.5 63.5z" />
<glyph unicode="&#xd7;" horiz-adv-x="937" d="M145 242l246 247l-246 246l76 76l246 -246l250 248l76 -76l-250 -248l250 -249l-76 -76l-250 250l-246 -248z" />
<glyph unicode="&#xd8;" horiz-adv-x="1548" d="M117 659q0 302 172 497q182 206 487 206q225 0 381 -111l133 156l105 -80l-138 -164q179 -195 179 -489q0 -291 -169 -484q-187 -215 -505 -215q-239 0 -402 123l-143 -170l-98 88l147 174q-149 184 -149 469zM287 692.5q0 -241.5 82 -379.5l700 832q-117 82 -273.5 82 t-248.5 -40t-149 -113q-111 -140 -111 -381.5zM455 209q116 -98 311 -98q256 0 384 161q118 149 118 391.5t-105 389.5z" />
<glyph unicode="&#xd9;" horiz-adv-x="1409" d="M188 455v897h154v-828q0 -221 97.5 -317t269.5 -96t270 96t98 317v828h144v-897q0 -212 -125 -339q-137 -139 -387 -139q-271 0 -403 139q-118 123 -118 339zM453 1671q0 25 18 44.5t53 21.5l371 -205l4 -14l-10 -41l-17 -7l-411 158q-8 18 -8 43z" />
<glyph unicode="&#xda;" horiz-adv-x="1409" d="M188 455v897h154v-828q0 -221 97.5 -317t269.5 -96t270 96t98 317v828h144v-897q0 -212 -125 -339q-137 -139 -387 -139q-271 0 -403 139q-118 123 -118 339zM510 1518l6 14l371 205q35 -2 53 -21.5t18 -44t-8 -43.5l-411 -158l-17 7z" />
<glyph unicode="&#xdb;" horiz-adv-x="1409" d="M188 455v897h154v-828q0 -221 97.5 -317t269.5 -96t270 96t98 317v828h144v-897q0 -212 -125 -339q-137 -139 -387 -139q-271 0 -403 139q-118 123 -118 339zM459 1507l4 15l227 202h15l227 -202l4 -15l-10 -41l-17 -6l-211 127l-213 -127l-16 6z" />
<glyph unicode="&#xdc;" horiz-adv-x="1409" d="M188 455v897h154v-828q0 -221 97.5 -317t269.5 -96t270 96t98 317v828h144v-897q0 -212 -125 -339q-137 -139 -387 -139q-271 0 -403 139q-118 123 -118 339zM483 1625q0 38 24.5 65.5t59.5 27.5t60.5 -27.5t25.5 -65.5t-25.5 -63.5t-60.5 -25.5t-59.5 25.5t-24.5 63.5z M805 1625q0 38 24.5 65.5t59.5 27.5t60.5 -27.5t25.5 -65.5t-25.5 -63.5t-60.5 -25.5t-59.5 25.5t-24.5 63.5z" />
<glyph unicode="&#xdd;" horiz-adv-x="1159" d="M-23 1352h183l428 -650l413 650h179l-523 -797v-555h-153v547zM440 1518l6 14l369 205q35 -2 53.5 -21.5t18.5 -43t-6 -44.5l-414 -158l-16 7z" />
<glyph unicode="&#xde;" horiz-adv-x="1062" d="M203 0v1352h143v-260q82 4 150 4q221 0 351 -105.5t130 -304.5q0 -283 -254 -372q-90 -31 -203 -31t-174 6v-289h-143zM346 426q78 -8 152 -8q160 0 234.5 68.5t74.5 211.5q0 194 -161 244q-58 19 -130.5 19t-169.5 -5v-530z" />
<glyph unicode="&#xdf;" horiz-adv-x="1114" d="M160 0v995q0 236 95 371q100 141 284 141q145 0 241 -85q90 -80 90 -191q0 -70 -32.5 -128.5t-71.5 -110.5t-71.5 -100t-32.5 -92t28.5 -76t71.5 -62.5t92 -63.5t92 -77q101 -103 101 -238q0 -150 -110 -238q-87 -70 -200 -70q-123 0 -219 91l41 145q31 -61 84 -95 t110.5 -34t99.5 44t42 125t-27.5 130t-68.5 85t-88 65.5t-88 63.5q-97 80 -97 189q0 72 30 127.5t65.5 104.5t65.5 98t30 111t-46 109.5t-130.5 47.5t-129 -32.5t-69.5 -85.5q-39 -84 -39 -269v-995h-143z" />
<glyph unicode="&#xe0;" horiz-adv-x="1019" d="M82 251q0 118 59.5 187.5t145.5 104.5q135 55 348 55h92v25q0 78 -21.5 118.5t-59.5 66.5q-64 44 -194.5 44t-267.5 -82l-32 123q137 80 327 80q391 0 391 -332v-641h-112l-17 168h-8q-52 -80 -157 -136q-109 -57 -234 -57t-192.5 79t-67.5 197zM215 1326q0 24 18.5 44.5 t53.5 22.5l368 -207l7 -15l-11 -41l-16 -6l-414 158q-6 20 -6 44zM233 260q0 -80 44 -122t123 -42t173.5 53.5t153.5 153.5v191h-18q-215 0 -302.5 -31t-130.5 -77t-43 -126z" />
<glyph unicode="&#xe1;" horiz-adv-x="1019" d="M82 251q0 118 59.5 187.5t145.5 104.5q135 55 348 55h92v25q0 78 -21.5 118.5t-59.5 66.5q-64 44 -194.5 44t-267.5 -82l-32 123q137 80 327 80q391 0 391 -332v-641h-112l-17 168h-8q-52 -80 -157 -136q-109 -57 -234 -57t-192.5 79t-67.5 197zM233 260q0 -80 44 -122 t123 -42t173.5 53.5t153.5 153.5v191h-18q-215 0 -302.5 -31t-130.5 -77t-43 -126zM367 1171l6 15l368 207q35 -2 54.5 -22.5t19.5 -45t-8 -43.5l-414 -158l-14 6z" />
<glyph unicode="&#xe2;" horiz-adv-x="1019" d="M82 251q0 118 59.5 187.5t145.5 104.5q135 55 348 55h92v25q0 78 -21.5 118.5t-59.5 66.5q-64 44 -194.5 44t-267.5 -82l-32 123q137 80 327 80q391 0 391 -332v-641h-112l-17 168h-8q-52 -80 -157 -136q-109 -57 -234 -57t-192.5 79t-67.5 197zM233 260q0 -80 44 -122 t123 -42t173.5 53.5t153.5 153.5v191h-18q-215 0 -302.5 -31t-130.5 -77t-43 -126zM252 1161l6 15l225 202h17l225 -202l6 -15l-12 -39l-14 -6l-213 125l-211 -125l-17 6z" />
<glyph unicode="&#xe3;" horiz-adv-x="1019" d="M82 251q0 118 59.5 187.5t145.5 104.5q135 55 348 55h92v25q0 78 -21.5 118.5t-59.5 66.5q-64 44 -194.5 44t-267.5 -82l-32 123q137 80 327 80q391 0 391 -332v-641h-112l-17 168h-8q-52 -80 -157 -136q-109 -57 -234 -57t-192.5 79t-67.5 197zM182 1194q0 42 37 80 q73 76 138 76t146 -9.5t143.5 -9.5t97 8.5t63.5 44.5l24 -16q0 -6 -10 -31.5t-31 -53.5q-57 -73 -139 -73l-329 19q-51 0 -72 -13.5t-41 -37.5zM233 260q0 -80 44 -122t123 -42t173.5 53.5t153.5 153.5v191h-18q-215 0 -302.5 -31t-130.5 -77t-43 -126z" />
<glyph unicode="&#xe4;" horiz-adv-x="1019" d="M82 251q0 118 59.5 187.5t145.5 104.5q135 55 348 55h92v25q0 78 -21.5 118.5t-59.5 66.5q-64 44 -194.5 44t-267.5 -82l-32 123q137 80 327 80q391 0 391 -332v-641h-112l-17 168h-8q-52 -80 -157 -136q-109 -57 -234 -57t-192.5 79t-67.5 197zM233 260q0 -80 44 -122 t123 -42t173.5 53.5t153.5 153.5v191h-18q-215 0 -302.5 -31t-130.5 -77t-43 -126zM266 1281q0 38 24.5 65.5t58.5 27.5t59.5 -27.5t25.5 -65.5t-25.5 -63.5t-59.5 -25.5t-58.5 25.5t-24.5 63.5zM588 1281q0 38 23.5 65.5t58.5 27.5t60.5 -27.5t25.5 -65.5t-25.5 -63.5 t-60.5 -25.5t-58.5 25.5t-23.5 63.5z" />
<glyph unicode="&#xe5;" horiz-adv-x="1019" d="M82 251q0 118 59.5 187.5t145.5 104.5q135 55 348 55h92v25q0 78 -21.5 118.5t-59.5 66.5q-64 44 -194.5 44t-267.5 -82l-32 123q137 80 327 80q391 0 391 -332v-641h-112l-17 168h-8q-52 -80 -157 -136q-109 -57 -234 -57t-192.5 79t-67.5 197zM233 260q0 -80 44 -122 t123 -42t173.5 53.5t153.5 153.5v191h-18q-215 0 -302.5 -31t-130.5 -77t-43 -126zM352 1249q0 57 45 103.5t124 46.5t124 -48t45 -103.5t-43 -100.5t-125 -45q-80 0 -128 48q-42 42 -42 99zM428 1250q0 -36 26.5 -67.5t67.5 -31.5t65.5 29.5t24.5 65.5t-25.5 70t-68.5 34 t-66.5 -32t-23.5 -68z" />
<glyph unicode="&#xe6;" horiz-adv-x="1677" d="M82 251q0 118 59.5 187.5t145.5 104.5q135 55 348 55h92v25q0 78 -21.5 118.5t-59.5 66.5q-64 44 -194.5 44t-267.5 -82l-32 123q137 80 327 80q222 0 311 -105q25 -28 35 -57h9q59 70 155 116t213 46q180 0 278.5 -91t98.5 -257q0 -94 -18 -123h-691v-37 q7 -260 188 -351q62 -30 153 -30t178.5 35t144.5 76l27 -109q-187 -111 -373 -111q-137 0 -235.5 56.5t-157.5 148.5h-9q-82 -113 -199.5 -159t-243.5 -46t-193.5 79t-67.5 197zM233 260q0 -80 44 -122t123 -42t173.5 53.5t153.5 153.5v191h-18q-215 0 -302.5 -31 t-130.5 -77t-43 -126zM885 610h559q2 10 2 18v19q0 100 -76 157q-71 54 -190 54t-194 -70.5t-101 -177.5z" />
<glyph unicode="&#xe7;" horiz-adv-x="1024" d="M100 479q0 212 115 345q128 149 373 149q98 0 192 -22.5t152 -59.5l-35 -121q-47 35 -135 62.5t-177 27.5t-151.5 -30.5t-103.5 -81.5q-78 -98 -78 -256q0 -172 89 -283q97 -121 259 -121q82 0 167 32t142 85l33 -127q-53 -35 -146.5 -66.5t-199.5 -36.5l-49 -79 q36 8 67 8q72 0 117 -42t45 -91.5t-16.5 -80t-45.5 -54.5q-66 -52 -161 -52q-91 0 -186 39l-2 12l26 48h15q62 -25 141 -25q108 0 108 82q0 55 -30.5 74.5t-76.5 19.5t-97 -14l-17 22l88 135q-201 15 -316 165q-106 137 -106 337z" />
<glyph unicode="&#xe8;" horiz-adv-x="1056" d="M96 471q0 211 126 353q132 149 360 149q180 0 278 -91t98 -257q0 -94 -18 -123h-690v-21q0 -166 82 -276q90 -121 252 -121q98 0 185 35t144 76l27 -109q-187 -111 -373 -111q-223 0 -350 149q-121 142 -121 347zM264 610h559q2 10 2 18v19q0 100 -75 157q-70 54 -190 54 t-194.5 -70.5t-101.5 -177.5zM283 1326q0 24 18 44.5t53 22.5l369 -207l6 -15l-10 -41l-17 -6l-413 158q-6 20 -6 44z" />
<glyph unicode="&#xe9;" horiz-adv-x="1056" d="M96 471q0 211 126 353q132 149 360 149q180 0 278 -91t98 -257q0 -94 -18 -123h-690v-21q0 -166 82 -276q90 -121 252 -121q98 0 185 35t144 76l27 -109q-187 -111 -373 -111q-223 0 -350 149q-121 142 -121 347zM264 610h559q2 10 2 18v19q0 100 -75 157q-70 54 -190 54 t-194.5 -70.5t-101.5 -177.5zM395 1171l6 15l369 207q35 -2 53.5 -22.5t18.5 -38.5q0 -35 -6 -50l-414 -158l-14 6z" />
<glyph unicode="&#xea;" horiz-adv-x="1056" d="M96 471q0 211 126 353q132 149 360 149q180 0 278 -91t98 -257q0 -94 -18 -123h-690v-21q0 -166 82 -276q90 -121 252 -121q98 0 185 35t144 76l27 -109q-187 -111 -373 -111q-223 0 -350 149q-121 142 -121 347zM264 610h559q2 10 2 18v19q0 100 -75 157q-70 54 -190 54 t-194.5 -70.5t-101.5 -177.5zM317 1161l5 15l227 202h14l228 -202l4 -15l-11 -39l-16 -6l-211 125l-213 -125l-16 6z" />
<glyph unicode="&#xeb;" horiz-adv-x="1056" d="M96 471q0 211 126 353q132 149 360 149q180 0 278 -91t98 -257q0 -94 -18 -123h-690v-21q0 -166 82 -276q90 -121 252 -121q98 0 185 35t144 76l27 -109q-187 -111 -373 -111q-223 0 -350 149q-121 142 -121 347zM264 610h559q2 10 2 18v19q0 100 -75 157q-70 54 -190 54 t-194.5 -70.5t-101.5 -177.5zM305 1281q0 38 24.5 65.5t59.5 27.5t60.5 -27.5t25.5 -65.5t-25.5 -63.5t-60.5 -25.5t-59.5 25.5t-24.5 63.5zM627 1281q0 38 24.5 65.5t59.5 27.5t60.5 -27.5t25.5 -65.5t-26 -63.5t-60 -25.5q-35 0 -59.5 25.5t-24.5 63.5z" />
<glyph unicode="&#xec;" horiz-adv-x="462" d="M-61 1282q-23 52 9 88q19 21 54 23l371 -207l6 -15l-12 -41l-17 -6zM160 0v942h143v-942h-143z" />
<glyph unicode="&#xed;" horiz-adv-x="462" d="M31 1171l6 15l369 207q35 -2 54 -22.5t19 -45t-8 -43.5l-414 -158l-14 6zM160 0v942h143v-942h-143z" />
<glyph unicode="&#xee;" horiz-adv-x="462" d="M-14 1161l6 15l225 202h16l226 -202l6 -15l-12 -39l-15 -6l-213 125l-211 -125l-16 6zM160 0v942h143v-942h-143z" />
<glyph unicode="&#xef;" horiz-adv-x="462" d="M-16 1281q0 38 24.5 65.5t59.5 27.5t60.5 -27.5t25.5 -65.5t-26 -63.5t-60 -25.5q-35 0 -59.5 25.5t-24.5 63.5zM160 0v942h143v-942h-143zM305 1281q0 38 24.5 65.5t59.5 27.5t60.5 -27.5t25.5 -65.5t-25.5 -63.5t-60.5 -25.5t-59.5 25.5t-24.5 63.5z" />
<glyph unicode="&#xf0;" horiz-adv-x="1155" d="M98 481q0 212 114 345q127 147 371.5 147t321.5 -162l6 2q-60 254 -123 387l-256 -65l-34 94l241 63q-64 102 -184 224h150q82 -74 151 -193l240 63l37 -98l-230 -59q137 -294 137 -637q0 -428 -241 -566q-90 -51 -222.5 -51t-222.5 43t-146 115q-110 141 -110 348z M252 485q0 -168 76 -277q86 -124 243 -124q156 0 245 124q79 111 79 288t-91 270.5t-237 93.5q-163 0 -243 -116q-72 -102 -72 -259z" />
<glyph unicode="&#xf1;" horiz-adv-x="1116" d="M160 0v942h112l17 -176h8q27 86 119 146.5t229 60.5q222 0 294 -177q26 -63 26 -155v-641h-144v623q0 125 -55 177t-123.5 52t-119 -16.5t-93.5 -47.5q-90 -66 -127 -184v-604h-143zM246 1194q46 156 186 156q78 0 135 -10q102 -19 147.5 -19t80 8t63.5 45l25 -16 q-21 -103 -107 -144q-31 -14 -93.5 -14t-147 14.5t-143 14.5t-79 -13.5t-41.5 -37.5z" />
<glyph unicode="&#xf2;" horiz-adv-x="1148" d="M98 475q0 213 116 349q126 149 361 149q123 0 213.5 -42t148.5 -113q114 -138 114 -353q0 -214 -113 -345q-124 -145 -356 -145q-238 0 -367 151q-117 137 -117 349zM250 481q0 -167 79 -276q88 -121 249 -121q84 0 144 30.5t100 83.5q77 101 77 265q0 169 -80 275 q-90 120 -252 120q-156 0 -241 -112q-76 -101 -76 -265zM279 1325q0 25 18 45.5t53 22.5l371 -207l6 -15l-12 -41l-15 -6l-413 158q-8 18 -8 43z" />
<glyph unicode="&#xf3;" horiz-adv-x="1148" d="M98 475q0 213 116 349q126 149 361 149q123 0 213.5 -42t148.5 -113q114 -138 114 -353q0 -214 -113 -345q-124 -145 -356 -145q-238 0 -367 151q-117 137 -117 349zM250 481q0 -167 79 -276q88 -121 249 -121q84 0 144 30.5t100 83.5q77 101 77 265q0 169 -80 275 q-90 120 -252 120q-156 0 -241 -112q-76 -101 -76 -265zM410 1171l6 15l368 207q35 -2 54.5 -22.5t19.5 -45t-8 -43.5l-414 -158l-14 6z" />
<glyph unicode="&#xf4;" horiz-adv-x="1148" d="M98 475q0 213 116 349q126 149 361 149q123 0 213.5 -42t148.5 -113q114 -138 114 -353q0 -214 -113 -345q-124 -145 -356 -145q-238 0 -367 151q-117 137 -117 349zM250 481q0 -167 79 -276q88 -121 249 -121q84 0 144 30.5t100 83.5q77 101 77 265q0 169 -80 275 q-90 120 -252 120q-156 0 -241 -112q-76 -101 -76 -265zM350 1161l6 15l228 202h14l225 -202l6 -15l-10 -39l-16 -6l-213 125l-211 -125l-17 6z" />
<glyph unicode="&#xf5;" horiz-adv-x="1148" d="M98 475q0 213 116 349q126 149 361 149q123 0 213.5 -42t148.5 -113q114 -138 114 -353q0 -214 -113 -345q-124 -145 -356 -145q-238 0 -367 151q-117 137 -117 349zM238 1194q46 156 186 156q78 0 135 -10q100 -19 146.5 -19t81 8t63.5 45l24 -16q-22 -104 -106 -144 q-31 -14 -93.5 -14t-147.5 14.5t-143 14.5t-78.5 -13.5t-41.5 -37.5zM250 481q0 -167 79 -276q88 -121 249 -121q84 0 144 30.5t100 83.5q77 101 77 265q0 169 -80 275q-90 120 -252 120q-156 0 -241 -112q-76 -101 -76 -265z" />
<glyph unicode="&#xf6;" horiz-adv-x="1148" d="M98 475q0 213 116 349q126 149 361 149q123 0 213.5 -42t148.5 -113q114 -138 114 -353q0 -214 -113 -345q-124 -145 -356 -145q-238 0 -367 151q-117 137 -117 349zM250 481q0 -167 79 -276q88 -121 249 -121q84 0 144 30.5t100 83.5q77 101 77 265q0 169 -80 275 q-90 120 -252 120q-156 0 -241 -112q-76 -101 -76 -265zM330 1281q0 38 24.5 65.5t59.5 27.5t60.5 -27.5t25.5 -65.5t-25.5 -63.5t-60.5 -25.5t-59.5 25.5t-24.5 63.5zM651 1281q0 38 24.5 65.5t59.5 27.5t60.5 -27.5t25.5 -65.5t-25.5 -63.5t-60.5 -25.5t-59.5 25.5 t-24.5 63.5z" />
<glyph unicode="&#xf7;" horiz-adv-x="1159" d="M158 436v107h848v-107h-848zM508 163q0 40 27.5 68.5t66.5 28.5t68.5 -28.5t29.5 -68.5t-29.5 -67.5t-68.5 -27.5t-66.5 27.5t-27.5 67.5zM508 813q0 39 27.5 68.5t66.5 29.5t68.5 -29.5t29.5 -68.5t-29.5 -66.5t-68.5 -27.5t-66.5 27.5t-27.5 66.5z" />
<glyph unicode="&#xf8;" horiz-adv-x="1148" d="M84 16l115 129q-101 135 -101 330q0 213 116 349q126 149 359 149q166 0 281 -80l104 119l105 -80l-115 -129q103 -136 103 -338q0 -214 -113 -345q-124 -145 -356 -145q-174 0 -289 80l-111 -127zM250 481q0 -131 47 -223l469 535q-82 65 -182.5 65t-159.5 -30.5 t-98 -81.5q-76 -101 -76 -265zM379 152q80 -68 181.5 -68t161.5 30.5t100 83.5q77 101 77 246.5t-49 243.5z" />
<glyph unicode="&#xf9;" horiz-adv-x="1114" d="M150 301v641h143v-623q0 -223 196 -223q171 0 271 138q33 45 51 104v604h143v-942h-112l-17 176h-8q-27 -86 -119 -143.5t-229 -57.5q-224 0 -293 171q-26 63 -26 155zM262 1325q0 25 18.5 45.5t53.5 22.5l368 -207l7 -15l-11 -41l-16 -6l-412 158q-8 18 -8 43z" />
<glyph unicode="&#xfa;" horiz-adv-x="1114" d="M150 301v641h143v-623q0 -223 196 -223q171 0 271 138q33 45 51 104v604h143v-942h-112l-17 176h-8q-27 -86 -119 -143.5t-229 -57.5q-224 0 -293 171q-26 63 -26 155zM340 1171l6 15l369 207q35 -2 53 -22.5t18 -44t-6 -44.5l-413 -158l-17 6z" />
<glyph unicode="&#xfb;" horiz-adv-x="1114" d="M150 301v641h143v-623q0 -223 196 -223q171 0 271 138q33 45 51 104v604h143v-942h-112l-17 176h-8q-27 -86 -119 -143.5t-229 -57.5q-224 0 -293 171q-26 63 -26 155zM307 1161l4 15l228 202h14l227 -202l4 -15l-10 -39l-16 -6l-213 125l-211 -125l-17 6z" />
<glyph unicode="&#xfc;" horiz-adv-x="1114" d="M150 301v641h143v-623q0 -223 196 -223q171 0 271 138q33 45 51 104v604h143v-942h-112l-17 176h-8q-27 -86 -119 -143.5t-229 -57.5q-224 0 -293 171q-26 63 -26 155zM299 1281q0 38 24.5 65.5t59.5 27.5t60.5 -27.5t25.5 -65.5t-25.5 -63.5t-60.5 -25.5t-59.5 25.5 t-24.5 63.5zM621 1281q0 38 24.5 65.5t59.5 27.5t60.5 -27.5t25.5 -65.5t-26 -63.5t-60 -25.5q-35 0 -59.5 25.5t-24.5 63.5z" />
<glyph unicode="&#xfd;" horiz-adv-x="1062" d="M-4 942h170l375 -784l336 784h161l-432 -950q-31 -66 -74 -155t-102 -169q-142 -192 -319 -192q-28 0 -43 6l-27 135q18 -6 51 -6q83 0 147 46q126 91 228 374zM391 1171l6 15l369 207q35 -2 53.5 -22.5t18.5 -38.5q0 -36 -7 -50l-413 -158l-15 6z" />
<glyph unicode="&#xfe;" horiz-adv-x="1177" d="M160 -532v2048h143v-750q44 77 138 138q106 69 244 69q85 0 163 -41t129 -108q102 -136 102 -345q0 -214 -109 -353q-120 -151 -327 -151q-137 0 -225 59.5t-115 147.5v-714h-143zM303 344q34 -110 134 -182q92 -66 184 -66t145 29t89 80q73 103 73 264q0 257 -165 351 q-56 32 -144 32t-173.5 -53.5t-142.5 -153.5v-301z" />
<glyph unicode="&#xff;" horiz-adv-x="1062" d="M-4 942h170l375 -784l336 784h161l-432 -950q-31 -66 -74 -155t-102 -169q-142 -192 -319 -192q-28 0 -43 6l-27 135q18 -6 51 -6q83 0 147 46q126 91 228 374zM272 1281q0 38 25 65.5t59 27.5q35 0 60.5 -27.5t25.5 -65.5t-25.5 -63.5t-60.5 -25.5t-59.5 25.5 t-24.5 63.5zM594 1281q0 38 24.5 65.5t59.5 27.5t60.5 -27.5t25.5 -65.5t-25.5 -63.5t-60.5 -25.5t-59.5 25.5t-24.5 63.5z" />
<glyph unicode="&#x152;" horiz-adv-x="1748" d="M115 659q0 302 172 497q182 206 487 206q61 0 148 -10h702v-144h-549v-420h412v-143h-412v-502h590v-143h-709q-90 -25 -225 -25t-256 55.5t-201 149.5q-159 189 -159 479zM285 665.5q0 -268.5 123 -411.5t356 -143q86 0 158 18v1079q-72 18 -178.5 18.5t-198.5 -39.5 t-149 -113q-111 -140 -111 -408.5z" />
<glyph unicode="&#x153;" horiz-adv-x="1867" d="M98 473q0 213 116 349q126 149 359 149q281 0 404 -219q59 98 164 158.5t268.5 60.5t261.5 -91.5t98 -256.5q0 -94 -18 -123h-690v-21q0 -165 82 -277q89 -120 252 -120q98 0 185 35t144 76l27 -109q-187 -111 -373 -111q-139 0 -240.5 57.5t-158.5 151.5 q-118 -209 -397 -209q-238 0 -367 151q-117 137 -117 349zM250 479q0 -167 79 -277q87 -120 249 -120q84 0 144 30.5t100 83.5q77 101 77 265q0 169 -80 275q-90 120 -252 120q-156 0 -241 -112q-76 -101 -76 -265zM1075 608h559q2 10 2 18v19q0 100 -76 157q-69 54 -189 54 t-194.5 -70.5t-101.5 -177.5z" />
<glyph unicode="&#x178;" horiz-adv-x="1159" d="M-23 1352h183l428 -650l413 650h179l-523 -797v-555h-153v547zM342 1625q0 38 24.5 65.5t58.5 27.5t59.5 -27.5t25.5 -65.5t-25.5 -63.5t-59.5 -25.5t-58.5 25.5t-24.5 63.5zM664 1625q0 38 23.5 65.5t57.5 27.5q35 0 60.5 -27.5t25.5 -65.5t-25.5 -63.5t-60.5 -25.5 t-58 25.5t-23 63.5z" />
<glyph unicode="&#x2c6;" horiz-adv-x="479" d="M0 1161l6 15l225 202h17l225 -202l6 -15l-12 -39l-14 -6l-213 125l-213 -125l-15 6z" />
<glyph unicode="&#x2dc;" horiz-adv-x="636" d="M0 1194q46 156 186 156q78 0 135 -10q102 -19 147.5 -19t80.5 8t63 45l25 -16q-21 -103 -107 -144q-30 -14 -92.5 -14t-147.5 14.5t-143.5 14.5t-79 -13.5t-40.5 -37.5z" />
<glyph unicode="&#x2000;" horiz-adv-x="868" />
<glyph unicode="&#x2001;" horiz-adv-x="1737" />
<glyph unicode="&#x2002;" horiz-adv-x="868" />
<glyph unicode="&#x2003;" horiz-adv-x="1737" />
<glyph unicode="&#x2004;" horiz-adv-x="579" />
<glyph unicode="&#x2005;" horiz-adv-x="434" />
<glyph unicode="&#x2006;" horiz-adv-x="289" />
<glyph unicode="&#x2007;" horiz-adv-x="289" />
<glyph unicode="&#x2008;" horiz-adv-x="217" />
<glyph unicode="&#x2009;" horiz-adv-x="347" />
<glyph unicode="&#x200a;" horiz-adv-x="96" />
<glyph unicode="&#x2010;" horiz-adv-x="995" d="M152 436v107h692v-107h-692z" />
<glyph unicode="&#x2011;" horiz-adv-x="995" d="M152 436v107h692v-107h-692z" />
<glyph unicode="&#x2012;" horiz-adv-x="995" d="M152 436v107h692v-107h-692z" />
<glyph unicode="&#x2013;" horiz-adv-x="1150" d="M152 436v107h847v-107h-847z" />
<glyph unicode="&#x2014;" horiz-adv-x="1617" d="M152 436v107h1314v-107h-1314z" />
<glyph unicode="&#x2018;" horiz-adv-x="460" d="M150 1130v216l149 157l41 -39l-80 -149h51v-185h-161z" />
<glyph unicode="&#x2019;" horiz-adv-x="419" d="M127 1169l80 150h-51v184h161v-215l-149 -158z" />
<glyph unicode="&#x201a;" horiz-adv-x="497" d="M139 -160l80 150h-51v184h162v-215l-150 -158z" />
<glyph unicode="&#x201c;" horiz-adv-x="768" d="M150 1130v216l149 157l41 -39l-80 -149h51v-185h-161zM457 1130v216l149 157l41 -39l-80 -149h51v-185h-161z" />
<glyph unicode="&#x201d;" horiz-adv-x="727" d="M127 1169l80 150h-51v184h161v-215l-149 -158zM434 1169l80 150h-51v184h162v-215l-150 -158z" />
<glyph unicode="&#x201e;" horiz-adv-x="827" d="M139 -160l80 150h-51v184h162v-215l-150 -158zM469 -160l80 150h-51v184h161v-215l-149 -158z" />
<glyph unicode="&#x2022;" horiz-adv-x="671" d="M197 496q0 57 39.5 100t99.5 43q56 0 97.5 -43.5t41.5 -100t-43 -96t-99 -39.5t-96 39.5t-40 96.5z" />
<glyph unicode="&#x2026;" horiz-adv-x="1255" d="M145 72q0 39 27 68.5t67 29.5t69.5 -29.5t29.5 -68.5t-29.5 -67t-69.5 -28t-67 28t-27 67zM532 72q0 39 28 68.5t67 29.5t68.5 -29.5t29.5 -68.5t-29.5 -67t-68.5 -28t-67 28t-28 67zM920 72q0 39 27.5 68.5t66.5 29.5t68.5 -29.5t29.5 -68.5t-29.5 -67t-68.5 -28 t-66.5 28t-27.5 67z" />
<glyph unicode="&#x202f;" horiz-adv-x="347" />
<glyph unicode="&#x2039;" horiz-adv-x="659" d="M106 487v11l275 362h162l-295 -362v-11l295 -362h-164z" />
<glyph unicode="&#x203a;" horiz-adv-x="659" d="M117 125l295 362v11l-295 362h162l274 -362v-11l-272 -362h-164z" />
<glyph unicode="&#x205f;" horiz-adv-x="434" />
<glyph unicode="&#x20ac;" horiz-adv-x="1275" d="M86 522v107h156v55q0 31 2 53h-158v107h172q41 233 178 370q148 148 371 148q92 0 188.5 -23.5t161.5 -64.5l-43 -148q-129 101 -319 101q-250 0 -335 -225q-26 -70 -38 -158h522v-107h-532v-108h532v-107h-524q53 -412 371 -411q111 0 201.5 36.5t148.5 90.5l41 -138 q-184 -125 -398 -125q-232 0 -374 158q-130 145 -160 389h-164z" />
<glyph unicode="&#x2122;" horiz-adv-x="1415" d="M131 1257v80h440v-80h-172v-501h-96v501h-172zM647 756v581h98l201 -495l199 495h96v-581h-80v428l-172 -428h-92l-172 430v-430h-78z" />
<glyph unicode="&#xe000;" horiz-adv-x="942" d="M0 0v942h942v-942h-942z" />
</font>
</defs>
</svg>
