<?xml version="1.0" standalone="no"?>
<!DOCTYPE svg PUBLIC "-//W3C//DTD SVG 1.1//EN" "http://www.w3.org/Graphics/SVG/1.1/DTD/svg11.dtd" >
<svg xmlns="http://www.w3.org/2000/svg">
<metadata></metadata>
<defs>
<font id="CantarellRegular" horiz-adv-x="1300" >
<font-face units-per-em="2048" ascent="1514" descent="-534" />
<missing-glyph horiz-adv-x="560" />
<glyph horiz-adv-x="0" />
<glyph horiz-adv-x="2048" />
<glyph unicode="&#xd;" horiz-adv-x="682" />
<glyph unicode=" "  horiz-adv-x="560" />
<glyph unicode="&#x09;" horiz-adv-x="560" />
<glyph unicode="&#xa0;" horiz-adv-x="560" />
<glyph unicode="!" horiz-adv-x="650" d="M225 0v200h200v-200h-200zM240 458v963h170v-963h-170z" />
<glyph unicode="&#x22;" horiz-adv-x="795" d="M110 1083v428h185v-428h-185zM500 1083v428h185v-428h-185z" />
<glyph unicode="#" horiz-adv-x="1402" d="M45 880v150h318v391h160v-391h358v391h160v-391h316v-150h-316v-352h316v-150h-316v-408h-160v408h-358v-408h-160v408h-316v150h316v352h-318zM523 528h358v352h-358v-352z" />
<glyph unicode="$" horiz-adv-x="1200" d="M227 300l46 124q166 -70 262 -70t150.5 12.5t91.5 49.5t37 85t-24 74t-64 42.5t-90.5 34t-103 32.5t-103 39.5t-90.5 54.5q-88 64 -88 182q0 82 61 160q74 92 240 120v271h121v-260q87 0 137 -8.5t128 -31.5l-42 -125q-134 37 -214.5 37t-126 -11t-70 -27.5t-39.5 -37.5 q-25 -33 -25 -72t42.5 -71t106 -52t137.5 -47.5t137.5 -58t106 -85.5t42.5 -114t-14.5 -102.5t-48.5 -88.5q-74 -100 -257 -124v-297h-121v290q-142 0 -325 75z" />
<glyph unicode="%" horiz-adv-x="1329" d="M85 0l969 1421h170l-969 -1421h-170zM98 1082q0 141 68 211t161 70q163 0 211 -153q16 -51 16 -118q0 -133 -64.5 -209.5t-163 -76.5t-163.5 67.5t-65 208.5zM196 1112.5q0 -76.5 12.5 -117.5t33.5 -61q39 -34 88.5 -34t88 42t38.5 121.5t-12.5 117t-33.5 55.5 q-37 32 -88 32t-89 -39.5t-38 -116zM757 341q0 141 67.5 211.5t152.5 70.5t153 -47q83 -60 83 -208.5t-65 -225t-163.5 -76.5t-163 67t-64.5 208zM854 371.5q0 -76.5 12.5 -117.5t33.5 -60q39 -35 88.5 -35t88 42t38.5 121.5t-12.5 117t-33.5 55.5q-37 32 -88 32t-89 -39.5 t-38 -116z" />
<glyph unicode="&#x26;" horiz-adv-x="1589" d="M180 282q0 130 86 262q58 90 167 171q12 9 39.5 30.5t31.5 24.5q-93 96 -124 138q-78 106 -78 215q0 140 117 228.5t278 88.5t252 -75.5t91 -189.5q0 -95 -66 -178q-53 -68 -105 -111.5t-91 -74t-50 -39.5l348 -371l323 353l93 -94l-322 -359l283 -301h-203l-194 201 q-137 -137 -254 -191q-122 -57 -277 -57t-250 92.5t-95 236.5zM347 327q0 -94 70 -160.5t176 -66.5q168 0 367 199l-359 372q-196 -147 -236 -247q-18 -46 -18 -97zM469 1114q0 -55 27 -90.5t42 -52.5t47.5 -49.5t49.5 -50.5q17 13 52 39.5t48.5 37.5t39 32t36 32.5t26 29.5 t21.5 32q16 39 16 69q0 62 -51.5 108t-137 46t-151 -54.5t-65.5 -128.5z" />
<glyph unicode="'" horiz-adv-x="405" d="M110 1083v428h185v-428h-185z" />
<glyph unicode="(" horiz-adv-x="742" d="M220 576q0 364 205 780q49 100 105 192l132 -69q-115 -192 -191 -424t-76 -480t76 -479t191 -420l-129 -84q-313 520 -313 984z" />
<glyph unicode=")" horiz-adv-x="742" d="M80 -324q115 189 191 420t76 478.5t-76.5 480t-190.5 424.5l132 69q310 -509 310 -972q0 -370 -208 -792q-49 -100 -105 -192z" />
<glyph unicode="*" horiz-adv-x="1196" d="M180 843l285 145l-285 141l85 148l266 -175l-18 319h170l-18 -319l266 175l85 -148l-284 -141l284 -145l-85 -148l-266 175l18 -318h-170l18 318l-266 -175z" />
<glyph unicode="+" horiz-adv-x="1400" d="M125 589v138h501v506h148v-506h501v-138h-501v-506h-148v506h-501z" />
<glyph unicode="," horiz-adv-x="570" d="M42 -220l158 390h180l-158 -390h-180z" />
<glyph unicode="-" horiz-adv-x="1210" d="M175 589v139h860v-139h-860z" />
<glyph unicode="." horiz-adv-x="570" d="M180 0v210h210v-210h-210z" />
<glyph unicode="/" horiz-adv-x="726" d="M40 -90l496 1511h170l-496 -1511h-170z" />
<glyph unicode="0" d="M111 725q0 118 18.5 217t50.5 170.5t75.5 128.5t91.5 93.5t101.5 61t103 34.5t108.5 10t128.5 -20t143.5 -71.5t129.5 -129.5t91.5 -205.5t36 -291.5t-35.5 -297t-91 -214.5t-128.5 -135.5q-130 -95 -282 -95q-166 0 -304 110q-167 134 -218 414q-19 103 -19 221z M279 730q0 -367 177 -521q90 -79 196 -79q78 0 141 38.5t99.5 85.5t65.5 110q63 137 63 358q0 349 -177 491q-92 74 -195 74q-48 0 -96 -16t-98 -57t-89 -102q-87 -139 -87 -382z" />
<glyph unicode="1" d="M250 1281l344 140h196v-1272h330v-149h-828v149h334v1108l-312 -123z" />
<glyph unicode="2" d="M188 1334q229 97 446 97t344.5 -106t127.5 -260q0 -140 -106 -255q-48 -52 -108 -103t-127 -108t-128 -119q-141 -142 -205 -330h700v-150h-907v93q77 240 225 409q118 134 221 217t152 128q106 97 106 193.5t-94 170t-231 73.5t-367 -82z" />
<glyph unicode="3" d="M176 32l48 138q208 -57 344.5 -57t246.5 80t110 206q0 77 -38 130.5t-85 83.5q-113 71 -330 71v146q248 0 344 116q48 60 48 137.5t-76 139t-212 61.5t-316 -83l-55 135q206 102 397 102t312.5 -96t121.5 -241q0 -111 -59.5 -198t-158.5 -125q145 -39 212.5 -128.5 t67.5 -222.5t-71.5 -243t-196.5 -169.5t-297 -59.5t-357 77z" />
<glyph unicode="4" d="M120 344v112l574 965h238v-927h248v-150h-248v-344h-164v344h-648zM316 494h452v765z" />
<glyph unicode="5" d="M173 15l32 151q150 -32 278 -32t197.5 14t115.5 38t79 54t51 65q34 66 34 118.5t-11.5 91.5t-41 81.5t-74.5 74.5q-103 73 -288 73q-105 0 -310 -24v701h856v-150h-693v-388q104 13 200 13t174.5 -16.5t132.5 -43t96.5 -64t67.5 -77t41 -84t22 -82.5t6 -75t-6 -75.5 t-23 -86t-44 -90t-74 -84.5t-107 -72q-137 -66 -333.5 -66t-377.5 35z" />
<glyph unicode="6" d="M169 577q0 196 41 347t108.5 245.5t164.5 155t199.5 84t189 23.5t158.5 -7l-12 -148q-54 6 -128.5 6t-154 -18t-133.5 -46t-97 -70.5t-68 -83.5t-43 -93q-26 -76 -39 -178q56 63 141 100.5t187 37.5q195 0 319.5 -126.5t124.5 -323.5q0 -137 -60.5 -252.5t-174 -185 t-257.5 -69.5q-214 0 -337 147q-129 153 -129 455zM336 474.5q0 -139.5 92.5 -249.5t222.5 -110t221 103.5t91 247.5t-94.5 235t-224 91t-219 -89t-89.5 -228.5z" />
<glyph unicode="7" d="M131 1261v160h1038v-107l-663 -1314h-198l652 1261h-829z" />
<glyph unicode="8" d="M150 392q0 119 78 228.5t206 170.5q-124 63 -167 158q-37 81 -37 149q0 144 112.5 243t311 99t307.5 -91.5t109 -255.5q0 -87 -49 -157t-152 -144q143 -64 212 -163.5t69 -200t-33 -176.5t-93.5 -137t-156.5 -98t-223 -37t-242.5 52t-183.5 146.5t-68 213.5zM324 399 q0 -106 94 -187.5t239.5 -81.5t231.5 77.5t86 189.5q0 198 -251 295q-46 18 -104 34q-138 -41 -217 -131t-79 -196zM397 1097q0 -91 83 -149q70 -49 164 -79q19 -6 54 -17q164 100 194 168q14 32 14 68q0 98 -76 153.5t-183 55.5t-178.5 -60t-71.5 -140z" />
<glyph unicode="9" d="M171 964q0 193 142.5 335t352.5 142q214 0 338.5 -152t124.5 -454q0 -194 -41 -344t-108.5 -244t-164.5 -155q-172 -107 -423 -107q-62 0 -124 6l12 148q45 -5 115.5 -5t136.5 11t115.5 29t90 47t68.5 58t50 70t35 74t23 79q14 66 24 153q-123 -131 -317 -131t-322 123.5 t-128 316.5zM335 973.5q0 -127.5 95.5 -218.5t223 -91t218 88t90.5 211q0 81 -42.5 159t-117 128.5t-158.5 50.5q-121 0 -215 -100t-94 -227.5z" />
<glyph unicode=":" horiz-adv-x="570" d="M180 0v210h210v-210h-210zM180 783v210h210v-210h-210z" />
<glyph unicode=";" horiz-adv-x="570" d="M42 -220l158 390h180l-158 -390h-180zM180 783v210h210v-210h-210z" />
<glyph unicode="&#x3c;" horiz-adv-x="1073" d="M100 533v165l873 430v-155l-699 -352l699 -336v-165z" />
<glyph unicode="=" horiz-adv-x="1400" d="M220 351v150h960v-150h-960zM220 804v150h960v-150h-960z" />
<glyph unicode="&#x3e;" horiz-adv-x="1073" d="M100 120v165l699 336l-699 352v155l873 -430v-165z" />
<glyph unicode="?" horiz-adv-x="1046" d="M100 1369q139 68 338 68t318.5 -85.5t119.5 -254.5q0 -158 -76 -253q-43 -55 -119 -120t-109 -104q-76 -88 -76 -228h-170q0 169 76 272q55 75 127 132t106 90q76 75 76 183q0 225 -345 225q-106 0 -214 -47zM311 0v200h200v-200h-200z" />
<glyph unicode="@" horiz-adv-x="2100" d="M181 381q0 125 12.5 221t44 197t79.5 187.5t124.5 163.5t174.5 132q210 117 526 117q420 0 620.5 -218t200.5 -651q0 -156 -31 -276.5t-76 -188t-105 -110.5q-98 -70 -196 -70t-163.5 47t-92.5 124q-130 -76 -270 -76q-188 0 -308 128t-120 349t125 363t328 142 q126 0 246 -59l23 65h113v-716q0 -114 12.5 -142.5t25.5 -49.5q27 -40 77.5 -40t88.5 26t74 80q81 122 81 384q0 492 -314 651q-152 77 -381 77q-351 0 -548 -216q-155 -169 -193 -440q-10 -72 -10 -177.5t37 -224t100.5 -203t148.5 -144.5q167 -118 382 -118q154 0 292 67 l63 -119q-175 -90 -380 -90q-229 0 -427 101q-269 138 -352 459q-32 123 -32 248zM753 474.5q0 -172.5 93.5 -269t235.5 -96.5q103 0 199 52v633q-103 46 -204 46q-143 0 -233.5 -96.5t-90.5 -269z" />
<glyph unicode="A" horiz-adv-x="1383" d="M130 0l505 1421h193l505 -1421h-172l-144 413h-586l-144 -413h-157zM482 562h483l-241 693z" />
<glyph unicode="B" horiz-adv-x="1424" d="M290 0v1421h501q200 0 303 -112q88 -95 88 -230q0 -87 -59 -173.5t-125 -111.5q132 -24 216.5 -127.5t84.5 -235.5q0 -180 -136 -301q-145 -130 -411 -130h-462zM460 150h265q136 0 189 15.5t93 35t65 46.5q58 64 58 166q0 133 -103 208t-277 75q-19 0 -290 -14v-532z M460 814q19 1 66 1.5t73 1t73 4t75.5 8t69 14t66 22t54 32t44.5 43.5q37 56 37 108.5t-6 79.5t-25 58t-49 53q-71 52 -204 52h-274v-477z" />
<glyph unicode="C" horiz-adv-x="1451" d="M275 688q0 226 85.5 389t248.5 258.5t367 95.5t396 -76l-52 -141q-194 67 -326.5 67t-235 -47.5t-170.5 -127.5q-143 -169 -143 -396q0 -238 154 -404q73 -78 181.5 -124t250 -46t308.5 60l52 -126q-209 -90 -416 -90q-383 0 -579 298q-121 184 -121 410z" />
<glyph unicode="D" horiz-adv-x="1606" d="M290 0v1421h440q280 0 440 -105q158 -103 218 -254q58 -148 58 -274.5t-14 -212.5t-48.5 -175t-87.5 -160q-176 -230 -571 -239q-45 -1 -127 -1h-308zM460 150h207q161 0 219.5 16t105 35t82.5 46q83 62 142 176.5t59 268.5t-36.5 255.5t-96.5 164.5q-118 124 -273 151 q-44 8 -133 8h-276v-1121z" />
<glyph unicode="E" horiz-adv-x="1283" d="M290 0v1421h833v-150h-663v-464h608v-150h-608v-507h663v-150h-833z" />
<glyph unicode="F" horiz-adv-x="1248" d="M290 0v1421h823v-150h-653v-464h593v-150h-593v-657h-170z" />
<glyph unicode="G" horiz-adv-x="1591" d="M215 709q0 234 116 415q125 195 339 268q115 40 249 40q240 0 457 -121l-67 -127q-186 98 -381 98q-216 0 -376 -148q-76 -71 -121.5 -178.5t-45.5 -256t75 -283.5t207 -210t310 -75t299 116v363h-404v140h569v-558q-55 -63 -140 -114q-164 -98 -379 -98 q-142 0 -261.5 42.5t-200.5 113.5t-137 166q-108 182 -108 407z" />
<glyph unicode="H" horiz-adv-x="1600" d="M290 0v1421h170v-613h760v613h170v-1421h-170v658h-760v-658h-170z" />
<glyph unicode="I" horiz-adv-x="730" d="M320 0v1421h170v-1421h-170z" />
<glyph unicode="J" horiz-adv-x="953" d="M110 7l27 142q67 -16 134.5 -16t115.5 12.5t78.5 30t52.5 46t32 51t16 55.5q7 37 7 89v1004h170v-995q0 -111 -20 -185t-78 -135q-117 -123 -339 -123q-100 0 -196 24z" />
<glyph unicode="K" horiz-adv-x="1417" d="M290 0v1421h170v-1421h-170zM484 729l602 692h213l-601 -678l639 -743h-219z" />
<glyph unicode="L" horiz-adv-x="1133" d="M290 0v1421h170v-1272h638v-149h-808z" />
<glyph unicode="M" horiz-adv-x="1884" d="M290 0v1421h240l456 -862l463 862h225v-1421h-170v1177l-437 -770h-170l-437 770v-1177h-170z" />
<glyph unicode="N" horiz-adv-x="1659" d="M290 0v1421h215l774 -1189v1189h170v-1421h-215l-774 1191v-1191h-170z" />
<glyph unicode="O" horiz-adv-x="1686" d="M215 701.5q0 170.5 51 307.5t140 230.5t212 145t265 51.5t264.5 -49.5t212 -139.5t140.5 -224.5t51 -324t-86.5 -359t-240 -262t-347.5 -92.5q-264 0 -456 178q-94 87 -150 227.5t-56 311zM390 731q0 -136 39 -248.5t106 -188.5q141 -160 355 -160q150 0 271 88 q215 155 215 487q0 336 -224 491q-125 87 -286 87q-82 0 -166 -34t-154.5 -99.5t-113 -176t-42.5 -246.5z" />
<glyph unicode="P" horiz-adv-x="1339" d="M290 0v1421h469q122 0 169 -10.5t86.5 -24t67.5 -31.5t58.5 -47.5t49.5 -65.5q42 -83 42 -185t-20 -172t-51.5 -117t-81.5 -81t-99 -52.5t-116 -28.5q-104 -17 -206 -17t-198 7v-596h-170zM460 746q96 -8 163.5 -8t100.5 1t81 7t80 16.5t68 31.5t57 50q50 65 50 171 q0 119 -58 174q-60 57 -121 67q-90 15 -173 15h-248v-525z" />
<glyph unicode="Q" horiz-adv-x="1706" d="M215 704q0 167 51 304.5t140 231.5q187 196 483 196t479 -198t183 -512t-150 -506l181 -179l-92 -97l-187 177q-172 -136 -415 -136q-285 0 -476 188q-92 90 -144.5 227t-52.5 304zM390 725.5q0 -141.5 42 -255.5t114 -186q148 -150 362 -150q163 0 283 93l-315 298 l105 108l306 -301q89 137 89 353q0 135 -33 242.5t-84.5 173.5t-120 109.5t-134 60t-143 16.5t-160.5 -33t-154 -98.5t-114 -177t-43 -253z" />
<glyph unicode="R" horiz-adv-x="1438" d="M290 0v1421h522q263 0 358 -149q58 -92 58 -238q0 -74 -17 -138t-53 -122q-76 -123 -248 -163l401 -611h-190l-385 592h-275v-592h-171zM461 742h245q186 0 268 66q35 27 59.5 79.5t24.5 114t-13 102.5t-33 67.5t-49 46t-56 29.5t-60 16q-49 9 -100 9h-286v-530z" />
<glyph unicode="S" horiz-adv-x="1361" d="M240 76l58 165q250 -93 398.5 -93t244 61t95.5 163q0 129 -152 198q-68 30 -150 56.5t-163.5 57t-149 70.5t-110 108t-42.5 155t39.5 162t109.5 131.5t175 90t248.5 33.5t332.5 -57l-55 -155q-180 52 -320 52t-242.5 -62.5t-102.5 -161.5q0 -108 120 -168 q109 -54 222 -89t182 -69t123 -74q120 -90 120 -253q0 -122 -78 -225q-145 -192 -471 -192q-116 0 -213.5 24t-218.5 72z" />
<glyph unicode="T" horiz-adv-x="1210" d="M85 1271v150h1120v-150h-475v-1271h-170v1271h-475z" />
<glyph unicode="U" horiz-adv-x="1582" d="M290 487v934h170v-921q0 -85 14.5 -146t61.5 -114q100 -113 295 -113q141 0 235.5 61.5t122.5 173.5q13 53 13 138v921h168l1 -787l1 -149q0 -171 -47 -269q-20 -41 -60.5 -88t-96.5 -78q-128 -70 -337 -70q-117 0 -210 24.5t-146 58.5t-91 82q-57 70 -75.5 145.5 t-18.5 196.5z" />
<glyph unicode="V" horiz-adv-x="1401" d="M140 1421h202l406 -1241l406 1241h187l-495 -1421h-211z" />
<glyph unicode="W" horiz-adv-x="2165" d="M140 1421h180l357 -1194l360 1194h171l370 -1194l347 1194h180l-438 -1421h-181l-373 1187l-349 -1187h-181z" />
<glyph unicode="X" horiz-adv-x="1368" d="M110 0l513 742l-453 679h206l362 -535l349 535h196l-450 -675l505 -746h-220l-399 599l-399 -599h-210z" />
<glyph unicode="Y" horiz-adv-x="1263" d="M100 1421h201l362 -587l370 587h190l-484 -748v-673h-170v673z" />
<glyph unicode="Z" horiz-adv-x="1358" d="M155 0v111l873 1160h-843v150h1086v-109l-890 -1162h917v-150h-1143z" />
<glyph unicode="[" horiz-adv-x="758" d="M250 -410v1921h458v-149h-294v-1623h294v-149h-458z" />
<glyph unicode="\" horiz-adv-x="726" d="M20 1421h170l496 -1511h-170z" />
<glyph unicode="]" horiz-adv-x="758" d="M50 -261h294v1623h-294v149h458v-1921h-458v149z" />
<glyph unicode="^" horiz-adv-x="1479" d="M443 1246l282 295l256 -286l-93 -88l-176 196l-181 -196z" />
<glyph unicode="_" horiz-adv-x="1160" d="M150 0v150h860v-150h-860z" />
<glyph unicode="`" horiz-adv-x="1122" d="M274 1463l71 123l504 -310l-63 -108z" />
<glyph unicode="a" horiz-adv-x="1069" d="M123 262q0 122 85 188q144 111 516 111v78q0 123 -57 177q-59 55 -173.5 55t-276.5 -45l-31 120q164 61 297.5 61t210 -25.5t118.5 -74.5q77 -92 77 -247v-660h-116l-38 90q-121 -110 -269.5 -110t-245.5 84.5t-97 197.5zM286 261q0 -54 63.5 -103t151.5 -49 q129 0 223 101v227h-61q-205 0 -290 -40q-36 -17 -61.5 -49.5t-25.5 -86.5z" />
<glyph unicode="b" horiz-adv-x="1183" d="M190 0v1511h164v-570q129 67 264 67q211 0 337 -157q99 -124 99 -356.5t-129.5 -373.5t-335.5 -141q-135 0 -265 66l-20 -46h-114zM354 155q107 -46 211 -46q161 0 254 113q75 91 75 255q0 257 -158 350q-77 45 -179 45t-203 -53v-664z" />
<glyph unicode="c" horiz-adv-x="1001" d="M130 473q0 115 28 208.5t74.5 153t109.5 99.5q116 72 262.5 72t281.5 -59l-40 -120q-111 38 -190 38t-125 -9.5t-91.5 -34.5t-77.5 -65q-73 -88 -73 -250q0 -253 157 -343q85 -48 190 -48t199 33l40 -113q-142 -55 -285 -55q-230 0 -358 148q-102 119 -102 345z" />
<glyph unicode="d" horiz-adv-x="1188" d="M130 487q0 118 36 220t99 167q130 134 330 134q118 0 239 -53v556h164v-1511h-114l-27 62q-139 -82 -290 -82q-214 0 -339 160q-98 124 -98 347zM290 503q0 -249 158 -342q78 -46 180 -46t206 56v660q-107 48 -215 48q-97 0 -159.5 -36t-95.5 -77q-74 -94 -74 -263z" />
<glyph unicode="e" horiz-adv-x="1102" d="M130 441.5q0 131.5 27 223.5t73 154.5t107.5 105.5t129 62.5t139 19.5t129 -17.5t95.5 -44.5t65.5 -70.5t42 -84t22.5 -97.5q12 -85 12 -198v-78h-679q0 -112 93 -205q45 -45 117.5 -73t168.5 -28t217 36l29 -112q-161 -55 -293 -55t-216.5 29t-136 75.5t-84.5 111.5 q-58 114 -58 245.5zM297 541h516q0 324 -243 324q-88 0 -152 -49q-121 -92 -121 -275z" />
<glyph unicode="f" horiz-adv-x="820" d="M135 859v129h143v100q0 130 39 198.5t115 105.5t179.5 37t233.5 -39l-25 -122q-93 24 -155 24t-105 -16.5t-64.5 -38t-33.5 -51.5q-18 -43 -18 -91v-107h331v-129h-331v-859h-166v859h-143z" />
<glyph unicode="g" horiz-adv-x="1176" d="M128 491q0 115 32 207.5t81 148.5t113 94q111 67 231 67t275 -79l21 59h115v-1050q0 -192 -96 -320q-120 -159 -390 -159q-153 0 -306 64l46 119q123 -46 239 -46q343 0 343 379v73q-129 -68 -261 -68q-136 0 -245 72q-198 130 -198 439zM288 510q0 -236 146 -340 q76 -55 184 -55t214 57v647q-137 56 -235 56q-139 0 -224 -100t-85 -265z" />
<glyph unicode="h" horiz-adv-x="1191" d="M190 0v1511h164v-598q175 93 328 93q188 0 264 -126q44 -73 53 -141q12 -91 12 -172v-567h-168v597q0 263 -225 263q-117 0 -264 -77v-783h-164z" />
<glyph unicode="i" horiz-adv-x="524" d="M165 1232v189h194v-189h-194zM180 0v988h164v-988h-164z" />
<glyph unicode="j" horiz-adv-x="524" d="M18 -410q162 77 162 256v1142h164v-1125q0 -112 -15.5 -156t-35 -79t-47.5 -62q-65 -63 -166 -100zM165 1232v189h194v-189h-194z" />
<glyph unicode="k" horiz-adv-x="1073" d="M180 0v1511h164v-1511h-164zM360 546l436 462h181l-430 -445l456 -563h-197z" />
<glyph unicode="l" horiz-adv-x="564" d="M200 0v1511h164v-1511h-164z" />
<glyph unicode="m" horiz-adv-x="1734" d="M180 0v988h115l35 -82q179 101 320 101t227 -110q196 109 351 109q274 0 314 -278q8 -60 8 -135v-593h-164v604q0 77 -13 112t-28.5 60t-37.5 42q-51 38 -137.5 38t-237.5 -78q14 -59 14 -192v-586h-164v608q0 172 -110 227q-41 21 -112 21t-216 -76v-780h-164z" />
<glyph unicode="n" horiz-adv-x="1176" d="M180 0v988h115l36 -84q191 104 348 104q224 0 287 -186q30 -92 30 -233v-589h-164v600q0 260 -224 260q-116 0 -264 -77v-783h-164z" />
<glyph unicode="o" horiz-adv-x="1211" d="M130 486.5q0 235.5 132.5 378t343 142.5t343 -131t132.5 -369t-135.5 -382.5t-345.5 -144.5t-340 135.5t-130 371zM290 511.5q0 -165.5 90 -278.5t227.5 -113t225.5 100t88 261q0 184 -103 289q-96 97 -220 97t-216 -95t-92 -260.5z" />
<glyph unicode="p" horiz-adv-x="1177" d="M180 -531v1519h114l27 -63q140 82 281 82t255 -71.5t163 -230.5q28 -89 28 -200q0 -243 -129.5 -384t-335.5 -141q-118 0 -239 53v-564h-164zM344 157q107 -48 215 -48q161 0 254 113q75 91 75 255q0 256 -158 349q-77 45 -180 45t-206 -55v-659z" />
<glyph unicode="q" horiz-adv-x="1176" d="M128 488q0 128 40 230t106.5 163.5t146.5 94t182 32.5t257 -79l21 59h115v-1519h-164v580q-131 -69 -268 -69q-132 0 -238 68q-198 127 -198 440zM288 504q0 -245 154 -340q79 -48 183 -48t207 55v648q-137 56 -235 56q-140 0 -224.5 -100t-84.5 -271z" />
<glyph unicode="r" horiz-adv-x="801" d="M180 0v988h115l31 -74q125 93 276 93q104 0 189 -39l-50 -131q-78 30 -182.5 30t-214.5 -69v-798h-164z" />
<glyph unicode="s" horiz-adv-x="1016" d="M130 55l46 124q190 -70 297 -70q244 0 244 155q0 66 -88 102q-88 37 -167 59.5t-129.5 47t-90.5 53.5q-88 65 -88 183q0 81 43 137.5t90 87.5q108 73 303 73q49 0 71 -2.5t34.5 -3.5t29 -4t24 -4.5t25 -6t21.5 -5.5q16 -4 46 -14l-42 -125q-134 37 -214.5 37t-126 -12 t-70 -29t-40.5 -40q-24 -35 -24 -74t42.5 -71t106 -52t137.5 -47.5t137.5 -58t106 -85.5t42.5 -111.5t-10.5 -95t-40 -80.5t-75.5 -73q-108 -70 -282.5 -70t-357.5 75z" />
<glyph unicode="t" horiz-adv-x="775" d="M70 859v129h133v283h164v-283h301v-129h-301v-546q0 -205 162 -205q29 0 153 21l23 -112q-145 -37 -226 -37t-137 26t-85 74q-54 89 -54 231v548h-133z" />
<glyph unicode="u" horiz-adv-x="1177" d="M180 398v590h164v-602q0 -259 225 -259q116 0 264 77v784h164v-988h-115l-35 83q-189 -103 -349 -103q-224 0 -287 186q-31 90 -31 232z" />
<glyph unicode="v" horiz-adv-x="993" d="M65 988h180l256 -825l257 825h170l-347 -988h-170z" />
<glyph unicode="w" horiz-adv-x="1685" d="M60 988h175l268 -829l254 829h161l264 -828l268 828h175l-361 -988h-165l-263 801l-260 -801h-165z" />
<glyph unicode="x" horiz-adv-x="1048" d="M65 988h190l279 -392l269 392h175l-364 -504l345 -484h-190l-265 371l-252 -371h-175l346 485z" />
<glyph unicode="y" horiz-adv-x="1060" d="M50 988h180l316 -838l294 838h170l-570 -1519h-175l198 482z" />
<glyph unicode="z" horiz-adv-x="1078" d="M150 0v87l538 772h-538v129h753v-87l-540 -772h565v-129h-778z" />
<glyph unicode="{" horiz-adv-x="798" d="M90 480v138q93 16 159 89t84 209q4 32 8.5 91.5t5.5 72.5q10 105 43.5 185.5t73.5 124t92 72.5q74 42 156 49l30 -129q-116 -14 -186 -120q-57 -86 -64 -234q-10 -267 -86 -380q-40 -58 -104 -99q143 -93 170 -271q12 -78 16 -154q12 -202 68 -287q70 -106 186 -120 l-30 -129q-72 5 -137.5 39.5t-106.5 77t-76 121t-41 140.5t-9.5 109.5t-6 78t-11.5 75.5t-22 77q-32 79 -90.5 121t-121.5 53z" />
<glyph unicode="|" horiz-adv-x="884" d="M360 -308v1909h164v-1909h-164z" />
<glyph unicode="}" horiz-adv-x="798" d="M56 -283q116 14 186 120q56 85 68 287q4 76 16 154q27 178 170 271q-125 80 -157 218q-28 119 -32 220q-8 189 -65 275q-70 106 -186 120l30 129q228 -20 322 -245q33 -81 43 -186q1 -13 5.5 -72.5t8.5 -91.5q18 -136 84 -209t159 -89v-138q-110 -19 -174 -108 q-60 -83 -72 -218q-2 -31 -5.5 -78.5t-9.5 -109.5t-41 -140.5t-76 -121t-93 -70.5q-79 -41 -151 -46z" />
<glyph unicode="~" horiz-adv-x="1400" d="M356 1256q2 8 8 40.5t9 44.5t10 42t14 43t18 36t24 34t31 24q30 23 81 23t92.5 -18.5t72 -45.5t57.5 -54t53.5 -45.5t44 -18.5t28 3.5t18.5 11t14.5 15t12 21t9 23.5t7.5 27.5t6 27.5q8 35 10 55l108 -17q-2 -9 -8 -41t-9 -44.5t-10 -42t-14 -43t-18 -36.5t-24 -34.5 t-31 -24.5q-30 -23 -81 -23t-92.5 18.5t-72 45.5t-57.5 54q-64 64 -103 64q-27 0 -38.5 -11.5t-17.5 -18t-12 -21t-9 -22.5t-7.5 -27t-6 -26t-5 -28t-4.5 -26z" />
<glyph unicode="&#xa1;" horiz-adv-x="650" d="M225 1121v200h200v-200h-200zM240 -410v1273h170v-1273h-170z" />
<glyph unicode="&#xa2;" horiz-adv-x="1021" d="M150 710q0 220 102 359t291 167v275h121v-270q108 0 242 -58l-40 -120q-111 38 -217 38q-165 0 -252.5 -91.5t-87.5 -262.5q0 -248 161 -339q84 -48 187.5 -48t197.5 33l40 -113q-130 -51 -231 -51v-294h-121v294q-176 20 -284.5 140.5t-108.5 340.5z" />
<glyph unicode="&#xa3;" d="M152 0v135h244v527h-176v135h176v141q0 317 220 432q114 61 248 61t253 -38l-48 -122q-89 24 -160 24t-123.5 -13.5t-88 -35.5t-61.5 -54.5t-40.5 -64.5t-22.5 -73q-13 -67 -13 -143v-114h530v-135h-530v-527h588v-135h-996z" />
<glyph unicode="&#xa4;" d="M185 1082l125 125l167 -167q81 47 174 47t172 -47l166 165l125 -125l-166 -165q47 -81 47 -174t-47 -172l165 -165l-125 -125l-165 165q-81 -48 -174 -48t-172 47l-166 -166l-125 125l166 166q-48 79 -48 172.5t48 174.5zM450 742q0 -85 58 -145t140.5 -60t141.5 60 t59 145t-58.5 144.5t-140.5 59.5t-141 -59.5t-59 -144.5z" />
<glyph unicode="&#xa5;" d="M143 1421h185l322 -603l332 603h175l-427 -722h282v-125h-289v-200h289v-125h-289v-249h-160v249h-275v125h275v200h-275v125h268z" />
<glyph unicode="&#xa6;" horiz-adv-x="884" d="M360 -308v768h164v-768h-164zM360 837v764h164v-764h-164z" />
<glyph unicode="&#xa7;" horiz-adv-x="1136" d="M160 45l46 124q171 -60 304 -60q276 0 276 177q0 82 -117 127q-52 20 -115 38.5t-126.5 41.5t-115.5 54q-117 70 -117 205q0 108 88 192q-88 71 -88 183q0 86 59 161q72 89 215 126q81 20 145.5 20t89.5 -1t48 -4t38 -5t37.5 -7.5t30.5 -7.5q40 -10 64 -18l-45 -131 q-125 39 -242 39t-189 -40t-72 -111q0 -78 119 -128q53 -23 117 -44t128.5 -46t117.5 -56q119 -70 119 -192.5t-84 -207.5q83 -68 83 -168q0 -95 -42.5 -155.5t-90.5 -93.5q-112 -77 -317 -77h-13q-186 0 -351 65zM374 783q0 -47 20.5 -74t63 -48.5t81 -36t103 -35.5 t101.5 -35q43 42 43 108q0 99 -194 155q-102 30 -168 53q-50 -40 -50 -87z" />
<glyph unicode="&#xa8;" horiz-adv-x="1200" d="M283 1235v186h185v-186h-185zM732 1235v186h185v-186h-185z" />
<glyph unicode="&#xa9;" horiz-adv-x="1760" d="M170 682q0 138 54.5 265.5t147.5 222.5t226 152.5t280.5 57.5t280 -56.5t226.5 -151t149.5 -222.5t55.5 -267t-55.5 -267t-149.5 -222.5t-226.5 -151t-278.5 -56.5t-278.5 56.5t-226.5 151t-149.5 222.5t-55.5 266zM303 683q0 -113 45 -217t122 -180.5t184 -122 t226 -45.5t226 45.5t184 122t122 180.5t45 217t-45 217t-122 180.5t-184 122t-226 45.5t-226 -45.5t-184 -122t-122 -180.5t-45 -217zM560 673q0 286 222 362q58 20 143 20t182 -43l-30 -87q-79 28 -142.5 28t-103.5 -12t-77 -39q-79 -58 -79 -208q0 -215 163 -265 q43 -13 102 -13t129 24l30 -82q-101 -39 -176 -39t-119 9.5t-89.5 34t-78.5 63.5q-76 86 -76 247z" />
<glyph unicode="&#xaa;" horiz-adv-x="766" d="M175 915q0 112 81.5 149.5t266.5 37.5v23q0 134 -142 134q-81 0 -170 -27l-18 71q99 36 181 36t128 -16.5t68.5 -37.5t34.5 -54q16 -44 16 -100v-371h-70l-22 54q-67 -72 -154 -72t-143.5 45.5t-56.5 127.5zM272 916q0 -35 34 -64.5t99 -29.5t118 80v117h-28 q-161 0 -203 -45q-20 -23 -20 -58z" />
<glyph unicode="&#xab;" horiz-adv-x="936" d="M75 623l255 365h185l-274 -365l274 -365h-185zM446 623l255 365h185l-274 -365l274 -365h-185z" />
<glyph unicode="&#xac;" horiz-adv-x="1400" d="M125 583v149h1150v-450h-148v301h-1002z" />
<glyph unicode="&#xad;" horiz-adv-x="1074" d="M220 589v139h634v-139h-634z" />
<glyph unicode="&#xae;" horiz-adv-x="1232" d="M90 1027q0 122 42 218t113 165t168 110t221 41t245 -69t192 -188.5t71 -243t-42 -219.5t-113 -165t-168 -110t-222 -41t-246.5 71t-191 190t-69.5 241zM201 1043.5q0 -166.5 121 -287t294 -120.5t294 120.5t121 286.5t-121 286.5t-294 120.5t-294 -120t-121 -286.5z M427 776v544h222q87 0 127 -36q50 -45 50 -126q0 -125 -105 -160l112 -222h-100l-101 208h-112v-208h-93zM520 1061l91 -1q59 0 93 18.5t34 56t-8.5 56t-20.5 27.5t-31 14q-25 8 -62 8h-96v-179z" />
<glyph unicode="&#xaf;" horiz-adv-x="1400" d="M285 1491v149h830v-149h-830z" />
<glyph unicode="&#xb0;" horiz-adv-x="589" d="M75 1234.5q0 93.5 64.5 159t154.5 65.5t155 -65.5t65 -158.5t-64.5 -159t-154.5 -66t-155 65.5t-65 159zM165 1235q0 -54 36.5 -94t92 -40t92 40.5t36.5 93.5t-36.5 93t-91 40t-92 -39.5t-37.5 -93.5z" />
<glyph unicode="&#xb1;" horiz-adv-x="1400" d="M220 150v137h960v-137h-960zM220 872v137h407v412h146v-412h407v-137h-407v-411h-146v411h-407z" />
<glyph unicode="&#xb2;" horiz-adv-x="800" d="M130 1461q126 63 235.5 63t180 -55.5t70.5 -143.5q0 -85 -66 -153q-58 -59 -117 -111q-108 -98 -147 -198h343v-105h-482v65q44 138 132 235q66 73 122.5 123t76.5 78t20 61.5t-42 67t-101 33.5t-188 -51z" />
<glyph unicode="&#xb3;" horiz-adv-x="800" d="M125 794l33 96q112 -31 178 -31t116.5 36.5t50.5 85t-21 75.5t-59 38q-64 20 -146 20v103q111 0 153.5 32t42.5 72t-33.5 66.5t-97.5 26.5t-164 -46l-39 94q123 59 220.5 59t163 -52t65.5 -144t-85 -146q116 -47 116 -167.5t-83 -191t-193.5 -70.5t-217.5 44z" />
<glyph unicode="&#xb4;" horiz-adv-x="1122" d="M274 1275l504 310l70 -123l-512 -295z" />
<glyph unicode="&#xb5;" horiz-adv-x="1187" d="M190 -410v1398h164v-558q0 -125 34 -192q65 -126 209 -126q89 0 246 77v799h164v-988h-115l-29 67q-147 -94 -283 -94t-226 80v-463h-164z" />
<glyph unicode="&#xb6;" horiz-adv-x="1338" d="M130 1133q0 176 91 264q59 57 112 75t82 24.5t69 9.5q53 5 117 5h547v-1511h-170v1361h-240v-1361h-171v686q-257 0 -374 188q-63 101 -63 259z" />
<glyph unicode="&#xb7;" horiz-adv-x="590" d="M190 628v210h210v-210h-210z" />
<glyph unicode="&#xb8;" horiz-adv-x="1101" d="M386 -446l26 91q157 -47 204.5 -47t74.5 22.5t27 46t-4 36t-16.5 22.5t-23 17t-35 16t-40.5 14t-52.5 15.5t-57.5 17.5l58 217h127l-40 -157q2 -1 16 -5l21 -6q147 -42 147 -168q0 -71 -55 -127t-149 -56q-75 0 -228 51z" />
<glyph unicode="&#xb9;" horiz-adv-x="543" d="M60 1459l191 52h92v-751h-113v643l-145 -41z" />
<glyph unicode="&#xba;" horiz-adv-x="762" d="M67 1146q0 184 99 282q93 91 206 91q50 0 87.5 -7.5t82 -32t76.5 -63.5q77 -92 77 -272.5t-89.5 -286t-225.5 -105.5q-129 0 -216 82q-97 94 -97 312zM181 1149q0 -198 96 -265q47 -32 94 -32t78.5 12.5t62.5 41.5q69 65 69 236q0 183 -95 244q-47 30 -95 30 q-88 0 -149 -58t-61 -209z" />
<glyph unicode="&#xbb;" horiz-adv-x="936" d="M50 258l274 365l-274 365h186l254 -365l-255 -365h-185zM421 258l274 365l-274 365h186l254 -365l-255 -365h-185z" />
<glyph unicode="&#xbc;" horiz-adv-x="1800" d="M150 1369l191 52h112v-803h-133v673l-140 -39zM359 0l821 1421h175l-820 -1421h-176zM1025 195v89l366 552h157v-531h107v-110h-107v-195h-133v195h-390zM1174 305h241v383z" />
<glyph unicode="&#xbd;" horiz-adv-x="1847" d="M150 1369l191 52h112v-813h-133v683l-140 -39zM359 0l821 1421h175l-820 -1421h-176zM1138 773q142 69 260.5 69t196.5 -60.5t78 -157.5q0 -104 -101 -198q-45 -42 -92 -84q-126 -111 -171 -226h378v-116h-531v72q54 173 180 298q52 50 100 92q107 95 107 144t-46 85.5 t-112 36.5t-205 -55z" />
<glyph unicode="&#xbe;" horiz-adv-x="1950" d="M194 650l37 106q128 -35 197.5 -35t125.5 39.5t56 101.5q0 140 -249 140v113q171 0 207 79q9 19 9 49t-37 59.5t-108 29.5t-179 -51l-44 104q132 65 241.5 65t181 -57.5t71.5 -144.5q0 -114 -93 -175q128 -53 128 -184.5t-91.5 -209.5t-211 -78t-241.5 49zM519 0 l821 1421h175l-820 -1421h-176zM1175 195v89l366 552h157v-531h107v-110h-107v-195h-133v195h-390zM1324 305h241v383z" />
<glyph unicode="&#xbf;" horiz-adv-x="1047" d="M128 -53l52 122q169 -69 291 -69t195 66.5t73 158.5q0 84 -49 139q-25 28 -84.5 76.5t-91 78t-60.5 72.5t-52 96q-48 114 -48 301h170q0 -195 76 -302q52 -76 154 -158q41 -32 74 -68q76 -81 76 -202.5t-67.5 -212t-161.5 -138.5t-191 -48q-170 0 -356 88zM339 1220v201 h200v-201h-200z" />
<glyph unicode="&#xc0;" horiz-adv-x="1383" d="M130 0l505 1421h193l505 -1421h-172l-144 413h-586l-144 -413h-157zM456 1806l70 123l504 -310l-62 -108zM482 562h483l-241 693z" />
<glyph unicode="&#xc1;" horiz-adv-x="1383" d="M130 0l505 1421h193l505 -1421h-172l-144 413h-586l-144 -413h-157zM430 1619l504 310l70 -123l-512 -295zM482 562h483l-241 693z" />
<glyph unicode="&#xc2;" horiz-adv-x="1383" d="M130 0l505 1421h193l505 -1421h-172l-144 413h-586l-144 -413h-157zM469 1629l282 295l256 -286l-93 -88l-176 196l-181 -195zM482 562h483l-241 693z" />
<glyph unicode="&#xc3;" horiz-adv-x="1383" d="M130 0l505 1421h193l505 -1421h-172l-144 413h-586l-144 -413h-157zM388 1589q2 8 8 40.5t9 44.5t10 42t14 43t18 36t24 34t31 24q30 23 81 23t92.5 -18.5t72 -45t57.5 -52.5q65 -64 103 -64q65 0 88 118q2 11 6 33.5t6 30.5l108 -17q-2 -11 -7 -37t-7.5 -39.5t-8.5 -38 t-11.5 -38.5t-14.5 -35t-18.5 -33t-23.5 -26.5t-29 -21.5q-37 -18 -81 -18t-85.5 18.5t-72 45t-57.5 52.5q-65 64 -103 64q-27 0 -38 -10.5t-17.5 -17.5t-12 -20.5t-9 -22.5t-7.5 -26.5t-6 -26.5q-9 -41 -11 -56zM482 562h483l-241 693z" />
<glyph unicode="&#xc4;" horiz-adv-x="1383" d="M130 0l505 1421h193l505 -1421h-172l-144 413h-586l-144 -413h-157zM416 1712v185h185v-185h-185zM482 562h483l-241 693zM864 1712v185h185v-185h-185z" />
<glyph unicode="&#xc5;" horiz-adv-x="1383" d="M130 0l492 1385q-68 31 -110 94t-42 154t77.5 165.5t185.5 74.5t186.5 -74.5t78.5 -166t-43.5 -155t-113.5 -94.5l492 -1383h-172l-144 413h-586l-144 -413h-157zM482 562h483l-241 693zM578 1618.5q0 -61.5 44.5 -107.5t111 -46t110 46t43.5 107t-43.5 106t-109.5 45 t-111 -44.5t-45 -106z" />
<glyph unicode="&#xc6;" horiz-adv-x="1915" d="M130 0l555 1421h1070v-150h-618v-464h563v-150h-563v-507h618v-150h-788v414h-515l-160 -414h-162zM510 562h457v709h-183z" />
<glyph unicode="&#xc7;" horiz-adv-x="1451" d="M275 709q0 205 85.5 368t248.5 258.5t367 95.5t396 -76l-52 -141q-194 67 -326.5 67t-235 -47.5t-170.5 -127.5q-143 -169 -143 -396q0 -238 154 -404q73 -78 181.5 -124t250 -46t308.5 60l52 -126q-209 -90 -416 -90h-28l-29 -115q60 -16 78 -27t33.5 -21t26.5 -23 t21 -29q21 -34 21 -95.5t-59 -118.5t-153 -57q-37 0 -75 8t-163 45l30 104q164 -50 211 -50t71.5 21t24.5 56t-36 54q-38 21 -199 67l55 199q-246 54 -388 249.5t-142 461.5z" />
<glyph unicode="&#xc8;" horiz-adv-x="1283" d="M290 0v1421h833v-150h-663v-464h608v-150h-608v-507h663v-150h-833zM408 1806l71 123l504 -310l-63 -108z" />
<glyph unicode="&#xc9;" horiz-adv-x="1283" d="M290 0v1421h833v-150h-663v-464h608v-150h-608v-507h663v-150h-833zM448 1619l504 310l70 -123l-512 -295z" />
<glyph unicode="&#xca;" horiz-adv-x="1283" d="M290 0v1421h833v-150h-663v-464h608v-150h-608v-507h663v-150h-833zM438 1637l282 295l256 -286l-94 -88l-175 196l-181 -195z" />
<glyph unicode="&#xcb;" horiz-adv-x="1283" d="M290 0v1421h833v-150h-663v-464h608v-150h-608v-507h663v-150h-833zM390 1713v185h185v-185h-185zM838 1713v185h185v-185h-185z" />
<glyph unicode="&#xcc;" horiz-adv-x="730" d="M136 1804l71 123l504 -310l-63 -106zM320 0v1421h170v-1421h-170z" />
<glyph unicode="&#xcd;" horiz-adv-x="730" d="M51 1620l504 310l70 -123l-512 -296zM320 0v1421h170v-1421h-170z" />
<glyph unicode="&#xce;" horiz-adv-x="730" d="M110 1629l282 295l256 -286l-94 -88l-175 196l-181 -195zM320 0v1421h170v-1421h-170z" />
<glyph unicode="&#xcf;" horiz-adv-x="670" d="M88 1639v185h185v-185h-185zM290 0v1421h170v-1421h-170zM477 1639v185h185v-185h-185z" />
<glyph unicode="&#xd0;" horiz-adv-x="1605" d="M117 658v150h218v613h435q148 0 230.5 -21.5t141.5 -46t106.5 -57.5t94 -84.5t77.5 -115.5q71 -142 71 -342q0 -422 -248 -612q-186 -142 -537 -142h-371v658h-218zM505 150h207q156 0 229 20.5t119.5 42t82.5 50.5t70.5 72.5t56.5 97.5q50 119 50 287q0 271 -162 426 q-59 55 -156 90t-221 35h-276v-463h256v-150h-256v-508z" />
<glyph unicode="&#xd1;" horiz-adv-x="1659" d="M290 0v1421h215l774 -1189v1189h170v-1421h-215l-774 1191v-1191h-170zM532 1589q2 11 7 37t7.5 39.5t8.5 38t11.5 38.5t14.5 35t18.5 33t23.5 26.5t29.5 22t36 12.5t54.5 5t75.5 -18.5t72 -45t57.5 -52.5q65 -64 103 -64q27 0 38 10.5t17.5 18t12 21t9.5 22.5t7.5 26.5 t5.5 27t5.5 29t5.5 27.5l108 -17q-2 -8 -8 -40.5t-9 -44.5t-10 -42t-14 -43t-18 -36t-24 -34t-31 -24q-30 -23 -81 -23t-92.5 18.5t-72 45t-57.5 52.5q-65 64 -103 64q-65 0 -88 -118q-2 -11 -6 -33.5t-6 -30.5z" />
<glyph unicode="&#xd2;" horiz-adv-x="1686" d="M215 701.5q0 170.5 51 307.5t140 230.5t212 145t265 51.5t264.5 -49.5t212 -139.5t140.5 -224.5t51 -324t-86.5 -359t-240 -262t-347.5 -92.5q-264 0 -456 178q-94 87 -150 227.5t-56 311zM390 718q0 -123 39 -235.5t106 -188.5q141 -160 355 -160q150 0 271 88 q215 155 215 488q0 117 -30 214.5t-79.5 163.5t-114.5 112q-124 87 -280 87q-147 0 -268 -85q-133 -95 -186 -267q-28 -94 -28 -217zM666 1809l71 123l504 -310l-63 -108z" />
<glyph unicode="&#xd3;" horiz-adv-x="1686" d="M215 701.5q0 170.5 51 307.5t140 230.5t212 145t265 51.5t264.5 -49.5t212 -139.5t140.5 -224.5t51 -324t-86.5 -359t-240 -262t-347.5 -92.5q-264 0 -456 178q-94 87 -150 227.5t-56 311zM390 718q0 -123 39 -235.5t106 -188.5q141 -160 355 -160q150 0 271 88 q215 155 215 488q0 117 -30 214.5t-79.5 163.5t-114.5 112q-124 87 -280 87q-147 0 -268 -85q-133 -95 -186 -267q-28 -94 -28 -217zM603 1620l504 310l70 -123l-512 -296z" />
<glyph unicode="&#xd4;" horiz-adv-x="1686" d="M215 701.5q0 170.5 51 307.5t140 230.5t212 145t265 51.5t264.5 -49.5t212 -139.5t140.5 -224.5t51 -324t-86.5 -359t-240 -262t-347.5 -92.5q-264 0 -456 178q-94 87 -150 227.5t-56 311zM390 718q0 -123 39 -235.5t106 -188.5q141 -160 355 -160q150 0 271 88 q215 155 215 488q0 117 -30 214.5t-79.5 163.5t-114.5 112q-124 87 -280 87q-147 0 -268 -85q-133 -95 -186 -267q-28 -94 -28 -217zM630 1629l282 295l256 -286l-93 -88l-176 196l-181 -195z" />
<glyph unicode="&#xd5;" horiz-adv-x="1686" d="M215 701.5q0 170.5 51 307.5t140 230.5t212 145t265 51.5t264.5 -49.5t212 -139.5t140.5 -224.5t51 -324t-86.5 -359t-240 -262t-347.5 -92.5q-264 0 -456 178q-94 87 -150 227.5t-56 311zM390 718q0 -123 39 -235.5t106 -188.5q141 -160 355 -160q150 0 271 88 q215 155 215 488q0 116 -29.5 213.5t-78.5 164t-115 112.5q-127 87 -281 87q-147 0 -268 -85q-133 -95 -186 -267q-28 -94 -28 -217zM549 1589q2 8 8 40.5t9 44.5t10 42t14 43t18 36t24 34t30 24q31 23 82 23t92.5 -18.5t72 -45t57.5 -52.5q65 -64 103 -64q65 0 88 118 q2 11 6 33.5t6 30.5l108 -17q-2 -8 -8 -40.5t-9 -44.5t-10 -42t-14 -43t-18 -36t-24 -34t-30 -24q-31 -23 -82 -23t-92.5 18.5t-72 45t-57.5 52.5q-65 64 -103 64q-65 0 -88 -118q-2 -11 -6 -33.5t-6 -30.5z" />
<glyph unicode="&#xd6;" horiz-adv-x="1686" d="M215 701.5q0 170.5 51 307.5t140 230.5t212 145t265 51.5t264.5 -49.5t212 -139.5t140.5 -224.5t51 -324t-86.5 -359t-240 -262t-347.5 -92.5q-264 0 -456 178q-94 87 -150 227.5t-56 311zM390 718q0 -123 39 -235.5t106 -188.5q141 -160 355 -160q150 0 271 88 q215 155 215 488q0 117 -30 214.5t-79.5 163.5t-114.5 112q-124 87 -280 87q-147 0 -268 -85q-133 -95 -186 -267q-28 -94 -28 -217zM576 1713v185h185v-185h-185zM1025 1713v185h185v-185h-185z" />
<glyph unicode="&#xd7;" horiz-adv-x="1299" d="M182 299l355 355l-347 346l105 105l361 -361l354 355l105 -106l-353 -354l346 -347l-105 -105l-361 361l-354 -354z" />
<glyph unicode="&#xd8;" horiz-adv-x="1756" d="M154 70l191 182q-130 187 -130 455q0 165 51 302t140 230.5t212 145t263 51.5t268.5 -50.5t222.5 -152.5l184 176l63 -65l-191 -182q123 -182 123 -417.5t-86.5 -405t-240 -262t-347.5 -92.5q-222 0 -383 118q-58 43 -92 79l-187 -177zM390 728q0 -201 86 -351l771 737 q-70 84 -167.5 128.5t-196.5 44.5t-183 -34t-154.5 -99.5t-113 -176t-42.5 -249.5zM528 302q69 -82 163.5 -125t182 -43t156 21t131.5 66.5t111 111.5q104 145 104 355.5t-77 349.5z" />
<glyph unicode="&#xd9;" horiz-adv-x="1580" d="M290 483v938h170v-921q0 -236 142 -320q89 -53 201.5 -53t178.5 20t106.5 53.5t65.5 82.5q46 87 46 217v921h170v-938q0 -130 -15.5 -181.5t-35 -93t-46.5 -71.5t-69 -61.5t-94 -51.5q-120 -44 -258 -44t-224.5 21t-141.5 51.5t-94.5 79t-58.5 89t-29 97.5 q-14 74 -14 165zM553 1804l71 123l504 -310l-63 -106z" />
<glyph unicode="&#xda;" horiz-adv-x="1580" d="M290 483v938h170v-921q0 -236 142 -320q89 -53 201.5 -53t178.5 20t106.5 53.5t65.5 82.5q46 87 46 217v921h170v-938q0 -130 -15.5 -181.5t-35 -93t-46.5 -71.5t-69 -61.5t-94 -51.5q-120 -44 -258 -44t-224.5 21t-141.5 51.5t-94.5 79t-58.5 89t-29 97.5 q-14 74 -14 165zM560 1620l504 310l70 -123l-512 -296z" />
<glyph unicode="&#xdb;" horiz-adv-x="1580" d="M290 483v938h170v-921q0 -236 142 -320q89 -53 201.5 -53t178.5 20t106.5 53.5t65.5 82.5q46 87 46 217v921h170v-938q0 -130 -15.5 -181.5t-35 -93t-46.5 -71.5t-69 -61.5t-94 -51.5q-120 -44 -258 -44t-224.5 21t-141.5 51.5t-94.5 79t-58.5 89t-29 97.5 q-14 74 -14 165zM562 1629l282 295l256 -286l-94 -88l-175 196l-181 -195z" />
<glyph unicode="&#xdc;" horiz-adv-x="1580" d="M290 483v938h170v-921q0 -236 142 -320q89 -53 201.5 -53t178.5 20t106.5 53.5t65.5 82.5q46 87 46 217v921h170v-938q0 -130 -15.5 -181.5t-35 -93t-46.5 -71.5t-69 -61.5t-94 -51.5q-120 -44 -258 -44t-224.5 21t-141.5 51.5t-94.5 79t-58.5 89t-29 97.5 q-14 74 -14 165zM513 1713v185h185v-185h-185zM962 1713v185h185v-185h-185z" />
<glyph unicode="&#xdd;" horiz-adv-x="1263" d="M100 1421h201l362 -587l370 587h190l-484 -748v-673h-170v673zM367 1620l504 310l70 -123l-512 -296z" />
<glyph unicode="&#xde;" horiz-adv-x="1326" d="M290 0v1421h170v-274q130 13 244 13t186 -10t138 -35.5t110 -66.5q98 -88 98 -257q0 -255 -168 -377q-51 -37 -138.5 -62.5t-237.5 -25.5t-232 6v-332h-170zM460 483q110 -9 195 -9h28q137 0 188 17t86 38t56 49q50 68 50 174q0 240 -309 254q-32 2 -110 2t-184 -10v-515 z" />
<glyph unicode="&#xdf;" horiz-adv-x="1258" d="M200 0v1023q0 243 177 349q97 58 223 58q61 0 119 -20.5t97.5 -54.5t67.5 -77q56 -84 56 -163t-27 -131t-65 -85t-76 -61q-92 -68 -92 -126q0 -70 91 -109q40 -17 89 -33.5t98 -39t89 -54.5q91 -71 91 -215q0 -130 -96 -215q-81 -72 -231 -72t-309 47l31 116 q157 -31 245 -31q187 0 187 152q0 85 -70 128q-64 39 -130 59.5t-106.5 42t-71.5 46.5q-70 58 -70 171q0 101 68 164q49 46 102.5 85.5t73 70.5t19.5 66q0 81 -63.5 136.5t-140.5 55.5q-89 0 -152 -67q-60 -66 -60 -194v-1022h-164z" />
<glyph unicode="&#xe0;" horiz-adv-x="1069" d="M123 262q0 256 415 291q82 7 186 7v79q0 123 -57 177q-59 55 -173.5 55t-276.5 -45l-31 120q161 60 296.5 60t212 -26t117.5 -76q77 -91 77 -248v-656h-116l-38 90q-121 -110 -269.5 -110t-245.5 84.5t-97 197.5zM287 277.5q0 -70.5 63 -119.5t151 -49q129 0 223 101v227 h-61q-174 0 -227 -18t-84 -35q-65 -36 -65 -106.5zM353 1430l92 109l364 -324l-80 -100z" />
<glyph unicode="&#xe1;" horiz-adv-x="1069" d="M123 262q0 256 415 291q82 7 186 7v79q0 123 -57 177q-59 55 -173.5 55t-276.5 -45l-31 120q161 60 296.5 60t212 -26t117.5 -76q77 -91 77 -248v-656h-116l-38 90q-121 -110 -269.5 -110t-245.5 84.5t-97 197.5zM287 277.5q0 -70.5 63 -119.5t151 -49q129 0 223 101v227 h-61q-174 0 -227 -18t-84 -35q-65 -36 -65 -106.5zM312 1225l364 324l92 -109l-376 -315z" />
<glyph unicode="&#xe2;" horiz-adv-x="1069" d="M123 262q0 256 415 291q82 7 186 7v79q0 123 -57 177q-59 55 -173.5 55t-276.5 -45l-31 120q161 60 296.5 60t212 -26t117.5 -76q77 -91 77 -248v-656h-116l-38 90q-121 -110 -269.5 -110t-245.5 84.5t-97 197.5zM262 1195l282 295l256 -286l-93 -88l-175 196l-182 -195z M287 277.5q0 -70.5 63 -119.5t151 -49q129 0 223 101v227h-61q-174 0 -227 -18t-84 -35q-65 -36 -65 -106.5z" />
<glyph unicode="&#xe3;" horiz-adv-x="1069" d="M123 262q0 256 415 291q82 7 186 7v79q0 123 -57 177q-59 55 -173.5 55t-276.5 -45l-31 120q161 60 296.5 60t212 -26t117.5 -76q77 -91 77 -248v-656h-116l-38 90q-121 -110 -269.5 -110t-245.5 84.5t-97 197.5zM182 1155l17 85q13 70 24.5 91t27 44.5t32.5 34.5 q47 32 96 32t90.5 -18.5t72 -45t57.5 -52.5q65 -64 103 -64q43 0 70 55q11 21 20 75l10 52l108 -17l-17 -85q-20 -96 -61.5 -149t-123.5 -53q-84 0 -158 64q-30 26 -57 52q-65 64 -103 64q-43 0 -70 -55q-11 -21 -20 -75l-10 -50zM287 277.5q0 -70.5 63 -119.5t151 -49 q129 0 223 101v227h-61q-174 0 -227 -18t-84 -35q-65 -36 -65 -106.5z" />
<glyph unicode="&#xe4;" horiz-adv-x="1069" d="M123 262q0 256 415 291q82 7 186 7v79q0 123 -57 177q-59 55 -173.5 55t-276.5 -45l-31 120q161 60 296.5 60t212 -26t117.5 -76q77 -91 77 -248v-656h-116l-38 90q-121 -110 -269.5 -110t-245.5 84.5t-97 197.5zM259 1235v186h185v-186h-185zM287 277.5 q0 -70.5 63 -119.5t151 -49q129 0 223 101v227h-61q-174 0 -227 -18t-84 -35q-65 -36 -65 -106.5zM708 1235v186h185v-186h-185z" />
<glyph unicode="&#xe5;" horiz-adv-x="1069" d="M123 262q0 256 415 291q82 7 186 7v79q0 123 -57 177q-59 55 -173.5 55t-276.5 -45l-31 120q161 60 296.5 60t212 -26t117.5 -76q77 -91 77 -248v-656h-116l-38 90q-121 -110 -269.5 -110t-245.5 84.5t-97 197.5zM287 277.5q0 -70.5 63 -119.5t151 -49q129 0 223 101v227 h-61q-174 0 -227 -18t-84 -35q-65 -36 -65 -106.5zM331 1348.5q0 93.5 64.5 159t154.5 65.5t155 -65.5t65 -158.5t-64.5 -159t-154.5 -66t-155 65.5t-65 159zM421 1349q0 -54 36.5 -94t92 -40t92 40.5t36.5 93.5t-36.5 93t-91 40t-92 -39.5t-37.5 -93.5z" />
<glyph unicode="&#xe6;" horiz-adv-x="1674" d="M123 261.5q0 116.5 92 195t268 96.5q88 9 241 9v51q0 99 -48 171q-56 86 -197 86q-91 0 -252 -44l-41 118q166 62 335 62q234 0 315 -174q65 79 158.5 126.5t189 47.5t160.5 -34.5t102.5 -88t59.5 -131.5q37 -128 37 -316h-654q0 -137 104.5 -230.5t259.5 -93.5 q84 0 206 36l27 -112q-152 -56 -278 -56q-261 0 -387 151q-115 -151 -348 -151q-140 0 -245 82.5t-105 199zM286 274q0 -67 67 -115t153 -48q127 0 218 96v229q-265 0 -356 -44q-47 -23 -64.5 -50.5t-17.5 -67.5zM897 560h489q0 220 -128 284q-41 20 -95 20 q-121 0 -193.5 -89.5t-72.5 -214.5z" />
<glyph unicode="&#xe7;" horiz-adv-x="1001" d="M130 474q0 107 28 200.5t74.5 153t109.5 98.5q116 73 262.5 73t281.5 -59l-40 -120q-111 38 -190 38t-125 -9.5t-91.5 -34.5t-77.5 -64q-73 -89 -73 -251q0 -253 157 -343q85 -48 190 -48t199 33l40 -113q-129 -49 -252 -54l-28 -110q2 -1 16 -5l21 -6q147 -42 147 -168 q0 -71 -55 -127t-149 -56q-75 0 -228 51l26 91q157 -47 204.5 -47t74.5 22.5t27 46t-4 36t-16.5 22.5t-23 17t-35 16t-40.5 14t-52.5 15.5t-57.5 17.5l47 176q-275 43 -346 308q-21 79 -21 186z" />
<glyph unicode="&#xe8;" horiz-adv-x="1102" d="M130 441.5q0 131.5 27 223.5t73 154.5t107.5 105.5t129 62.5t139 19.5t129 -17.5t95.5 -44.5t65.5 -70.5t42 -84t22.5 -97.5q12 -85 12 -198v-78h-679q0 -112 93 -205q45 -45 117.5 -73t168.5 -28t217 36l29 -112q-161 -55 -293 -55t-216.5 29t-136 75.5t-84.5 111.5 q-58 114 -58 245.5zM297 541h516q0 324 -243 324q-88 0 -152 -49q-121 -92 -121 -275zM368 1440l92 109l364 -324l-80 -100z" />
<glyph unicode="&#xe9;" horiz-adv-x="1102" d="M130 441.5q0 131.5 27 223.5t73 154.5t107.5 105.5t129 62.5t139 19.5t129 -17.5t95.5 -44.5t65.5 -70.5t42 -84t22.5 -97.5q12 -85 12 -198v-78h-679q0 -112 93 -205q45 -45 117.5 -73t168.5 -28t217 36l29 -112q-161 -55 -293 -55t-216.5 29t-136 75.5t-84.5 111.5 q-58 114 -58 245.5zM297 541h516q0 324 -243 324q-88 0 -152 -49q-121 -92 -121 -275zM412 1225l364 324l92 -109l-376 -315z" />
<glyph unicode="&#xea;" horiz-adv-x="1102" d="M130 441.5q0 131.5 27 223.5t73 154.5t107.5 105.5t129 62.5t139 19.5t129 -17.5t95.5 -44.5t65.5 -70.5t42 -84t22.5 -97.5q12 -85 12 -198v-78h-679q0 -112 93 -205q45 -45 117.5 -73t168.5 -28t217 36l29 -112q-161 -55 -293 -55t-216.5 29t-136 75.5t-84.5 111.5 q-58 114 -58 245.5zM297 541h516q0 324 -243 324q-88 0 -152 -49q-121 -92 -121 -275zM349 1195l282 295l256 -286l-93 -88l-176 196l-181 -195z" />
<glyph unicode="&#xeb;" horiz-adv-x="1102" d="M130 441.5q0 131.5 27 223.5t73 154.5t107.5 105.5t129 62.5t139 19.5t129 -17.5t95.5 -44.5t65.5 -70.5t42 -84t22.5 -97.5q12 -85 12 -198v-78h-677q0 -113 93 -205q100 -101 276 -101q104 0 225 36l29 -112q-161 -55 -293 -55t-216.5 29t-136 75.5t-84.5 111.5 q-58 114 -58 245.5zM295 541h518q0 324 -243 324q-88 0 -152 -49q-123 -93 -123 -275zM295 1235v186h185v-186h-185zM744 1235v186h185v-186h-185z" />
<glyph unicode="&#xec;" horiz-adv-x="524" d="M0 1440l92 109l364 -324l-80 -100zM180 0v988h164v-988h-164z" />
<glyph unicode="&#xed;" horiz-adv-x="524" d="M112 1225l364 324l92 -109l-376 -315zM180 0v988h164v-988h-164z" />
<glyph unicode="&#xee;" horiz-adv-x="530" d="M17 1195l251 295l226 -286l-93 -88l-146 186l-151 -185zM180 0v988h164v-988h-164z" />
<glyph unicode="&#xef;" horiz-adv-x="524" d="M-15 1236v185h185v-185h-185zM180 0v988h164v-988h-164zM354 1236v185h185v-185h-185z" />
<glyph unicode="&#xf0;" horiz-adv-x="1252" d="M130 428q0 140 54 257t155 187.5t237.5 70.5t328.5 -109q-26 192 -157 319l-179 -103l-54 95l142 82q-91 64 -206 103l62 128q166 -45 295 -145l182 105l55 -95l-152 -87q101 -108 140 -240t39 -262t-5 -200t-18.5 -144.5t-36 -133t-59.5 -111.5t-87 -89 q-106 -76 -293 -76t-315 120t-128 328zM289 475q0 -150 92.5 -255.5t223.5 -105.5q121 0 207 92q72 79 92 230q10 77 10 193v62q-187 116 -320.5 116t-219 -91t-85.5 -241z" />
<glyph unicode="&#xf1;" horiz-adv-x="1177" d="M180 0v988h115l36 -84q191 104 348 104q223 0 287 -186q31 -91 31 -233v-589h-165v600q0 260 -224 260q-116 0 -264 -77v-783h-164zM267 1160l17 85q0 2 1 5q38 196 184 196q83 0 157 -64q30 -26 57 -52q65 -64 103 -64q45 0 66 47q25 55 25 84l10 52l108 -17l-17 -85 q-19 -95 -54 -139q-48 -64 -131 -64q-84 0 -157 64q-31 26 -58 52q-65 64 -103 64t-59 -34q-15 -25 -31 -95l-10 -51z" />
<glyph unicode="&#xf2;" horiz-adv-x="1211" d="M130 486.5q0 235.5 132.5 378t343 142.5t343 -131t132.5 -369t-135.5 -382.5t-345.5 -144.5t-340 135.5t-130 371zM290 511.5q0 -165.5 90 -278.5t227.5 -113t225.5 100t88 261q0 184 -103 289q-96 97 -220 97t-216 -95t-92 -260.5zM437 1440l92 109l364 -324l-80 -100z " />
<glyph unicode="&#xf3;" horiz-adv-x="1211" d="M130 486.5q0 235.5 132.5 378t343 142.5t343 -131t132.5 -369t-135.5 -382.5t-345.5 -144.5t-340 135.5t-130 371zM290 511.5q0 -165.5 90 -278.5t227.5 -113t225.5 100t88 261q0 184 -103 289q-96 97 -220 97t-216 -95t-92 -260.5zM342 1225l364 324l92 -109l-376 -315z " />
<glyph unicode="&#xf4;" horiz-adv-x="1211" d="M130 486.5q0 235.5 132.5 378t343 142.5t343 -131t132.5 -369t-135.5 -382.5t-345.5 -144.5t-340 135.5t-130 371zM290 511.5q0 -165.5 90 -278.5t227.5 -113t225.5 100t88 261q0 184 -103 289q-96 97 -220 97t-216 -95t-92 -260.5zM342 1195l282 295l256 -286l-92 -88 l-176 196l-182 -195z" />
<glyph unicode="&#xf5;" horiz-adv-x="1211" d="M130 486.5q0 235.5 132.5 378t343 142.5t343 -131t132.5 -369t-135.5 -382.5t-345.5 -144.5t-340 135.5t-130 371zM247 1159q2 8 8 40.5t9 44.5t10 42t14 43t18 36t24 34t30 24q31 23 82 23t92.5 -18.5t72 -45t57.5 -52.5q65 -64 103 -64q65 0 88 118q2 11 6 33.5t6 30.5 l108 -17q-2 -8 -8 -40.5t-9 -44.5t-10 -42t-14 -43t-18 -36t-24 -34t-30 -24q-31 -23 -82 -23t-92.5 18.5t-72 45t-57.5 52.5q-65 64 -103 64q-27 0 -38 -10.5t-17.5 -17.5t-12 -20t-9 -22.5t-7 -26.5t-5.5 -27t-5.5 -28.5t-5.5 -27.5zM290 511.5q0 -165.5 90 -278.5 t227.5 -113t225.5 100t88 261q0 184 -103 289q-96 97 -220 97t-216 -95t-92 -260.5z" />
<glyph unicode="&#xf6;" horiz-adv-x="1211" d="M130 486.5q0 235.5 132.5 378t343 142.5t343 -131t132.5 -369t-135.5 -382.5t-345.5 -144.5t-340 135.5t-130 371zM290 511.5q0 -165.5 90 -278.5t227.5 -113t225.5 100t88 261q0 184 -103 289q-96 97 -220 97t-216 -95t-92 -260.5zM319 1235v186h185v-186h-185z M768 1235v186h185v-186h-185z" />
<glyph unicode="&#xf7;" horiz-adv-x="1400" d="M125 588v139h1150v-139h-1150zM602 83v195h195v-195h-195zM602 1038v195h195v-195h-195z" />
<glyph unicode="&#xf8;" horiz-adv-x="1211" d="M110 41l114 117q-94 130 -94 325q0 239 132.5 381.5t339 142.5t334.5 -119l105 107l58 -56l-109 -112q91 -126 91 -313q0 -245 -135.5 -389.5t-339 -144.5t-328.5 117l-110 -112zM290 530q0 -147 56 -247l473 485q-93 99 -219 99t-218 -95t-92 -242zM394 217 q89 -97 220 -97t219 100t88 244.5t-53 237.5z" />
<glyph unicode="&#xf9;" horiz-adv-x="1177" d="M180 398v590h164v-602q0 -259 225 -259q116 0 264 77v784h164v-988h-115l-35 83q-189 -103 -349 -103q-224 0 -287 186q-31 90 -31 232zM385 1440l92 109l364 -324l-80 -100z" />
<glyph unicode="&#xfa;" horiz-adv-x="1177" d="M180 398v590h164v-602q0 -259 225 -259q116 0 264 77v784h164v-988h-115l-35 83q-189 -103 -349 -103q-224 0 -287 186q-31 90 -31 232zM402 1225l364 324l92 -109l-376 -315z" />
<glyph unicode="&#xfb;" horiz-adv-x="1177" d="M180 398v590h164v-602q0 -259 225 -259q116 0 264 77v784h164v-988h-115l-35 83q-189 -103 -349 -103q-224 0 -287 186q-31 90 -31 232zM329 1195l282 295l256 -286l-93 -88l-176 196l-181 -195z" />
<glyph unicode="&#xfc;" horiz-adv-x="1177" d="M180 398v590h164v-602q0 -259 225 -259q116 0 264 77v784h164v-988h-115l-35 83q-189 -103 -349 -103q-224 0 -287 186q-31 90 -31 232zM276 1235v186h185v-186h-185zM724 1235v186h185v-186h-185z" />
<glyph unicode="&#xfd;" horiz-adv-x="1050" d="M50 988h170l316 -838l294 838h170l-570 -1519h-175l203 493zM402 1225l364 324l92 -109l-376 -315z" />
<glyph unicode="&#xfe;" horiz-adv-x="1221" d="M190 -531v1952h164v-536q105 118 288.5 118t316 -131t132.5 -362t-131.5 -382t-329.5 -151q-161 0 -276 107v-615h-164zM345 467q0 -350 270 -350q89 0 148.5 38.5t92.5 78.5q75 91 75 247q0 184 -103 285q-97 96 -221 96q-63 0 -112.5 -25t-77.5 -62.5t-45 -92.5 q-27 -87 -27 -215z" />
<glyph unicode="&#xff;" horiz-adv-x="1050" d="M50 988h170l316 -838l294 838h170l-570 -1519h-175l203 493zM221 1235v186h185v-186h-185zM670 1235v186h185v-186h-185z" />
<glyph unicode="&#x152;" horiz-adv-x="1998" d="M215 703q0 443 295 613q157 92 410 102q57 3 142 3h776v-150h-618v-464h563v-150h-563v-507h618v-150h-865q-255 0 -409.5 65t-251.5 227t-97 411zM385 701q0 -286 184 -439q102 -85 216 -103q58 -9 139 -9h126v1121h-57q-126 0 -188 -10q-199 -31 -309.5 -179.5 t-110.5 -380.5z" />
<glyph unicode="&#x153;" horiz-adv-x="1803" d="M130 488.5q0 234.5 127 374t337 139.5q125 0 218.5 -51.5t147.5 -145.5q100 154 286 185q38 7 91 7t108.5 -18t91.5 -45t62.5 -71t40.5 -85t22 -98q11 -89 11 -197v-76h-651q0 -108 86 -199q96 -100 272 -100q89 0 209 36l27 -112q-147 -55 -300 -55q-265 0 -379 183 q-124 -180 -361 -180q-202 0 -324 137t-122 371.5zM290 499q0 -159 85 -270t211 -111t205.5 94t79.5 262q0 279 -189 365q-50 23 -105 23q-128 0 -207.5 -102t-79.5 -261zM1026 531h490q0 324 -229 324q-83 0 -143 -48q-118 -93 -118 -276z" />
<glyph unicode="&#x178;" horiz-adv-x="1263" d="M100 1421h201l362 -587l370 587h190l-484 -748v-673h-170v673zM343 1713v185h185v-185h-185zM793 1713v185h185v-185h-185z" />
<glyph unicode="&#x2c6;" horiz-adv-x="1479" d="M443 1246l282 295l256 -286l-93 -88l-176 196l-181 -195z" />
<glyph unicode="&#x2dc;" horiz-adv-x="1400" d="M306 1284q2 4 19.5 40.5t22.5 46t23 41t28 43t30.5 33.5t38.5 30q50 25 93 25t83.5 -18.5t70.5 -45.5t57.5 -54t55 -45.5t47.5 -18.5t33 4.5t24.5 15.5t20 20.5t20 29.5t18 32.5t19 39t19.5 40.5l105 -47q-4 -8 -15.5 -32.5t-17 -35.5t-18 -34t-20.5 -35t-21.5 -31 t-25 -29.5t-28 -23.5t-32.5 -20q-35 -16 -77.5 -16t-83 18.5t-70.5 45.5t-57 54q-66 64 -108 64q-32 0 -48 -15.5t-24.5 -25.5t-19.5 -30t-18 -33t-19.5 -39.5t-19.5 -40.5z" />
<glyph unicode="&#x2000;" horiz-adv-x="966" />
<glyph unicode="&#x2001;" horiz-adv-x="1932" />
<glyph unicode="&#x2002;" horiz-adv-x="966" />
<glyph unicode="&#x2003;" horiz-adv-x="1932" />
<glyph unicode="&#x2004;" horiz-adv-x="644" />
<glyph unicode="&#x2005;" horiz-adv-x="483" />
<glyph unicode="&#x2006;" horiz-adv-x="322" />
<glyph unicode="&#x2007;" horiz-adv-x="322" />
<glyph unicode="&#x2008;" horiz-adv-x="241" />
<glyph unicode="&#x2009;" horiz-adv-x="386" />
<glyph unicode="&#x200a;" horiz-adv-x="107" />
<glyph unicode="&#x2010;" horiz-adv-x="1210" d="M175 589v139h860v-139h-860z" />
<glyph unicode="&#x2011;" horiz-adv-x="1210" d="M175 589v139h860v-139h-860z" />
<glyph unicode="&#x2012;" horiz-adv-x="1210" d="M175 589v139h860v-139h-860z" />
<glyph unicode="&#x2013;" horiz-adv-x="1159" d="M0 589v139h1159v-139h-1159z" />
<glyph unicode="&#x2014;" horiz-adv-x="1384" d="M0 589v139h1384v-139h-1384z" />
<glyph unicode="&#x2018;" horiz-adv-x="450" d="M90 1511h195l125 -433h-195z" />
<glyph unicode="&#x2019;" horiz-adv-x="450" d="M40 1078l125 433h195l-125 -433h-195z" />
<glyph unicode="&#x201a;" horiz-adv-x="450" d="M40 -216l125 433h195l-125 -433h-195z" />
<glyph unicode="&#x201c;" horiz-adv-x="830" d="M40 1078l125 433h195l-125 -433h-195zM420 1078l125 433h195l-125 -433h-195z" />
<glyph unicode="&#x201d;" horiz-adv-x="830" d="M40 1078l125 433h195l-125 -433h-195zM420 1078l125 433h195l-125 -433h-195z" />
<glyph unicode="&#x201e;" horiz-adv-x="830" d="M40 -219l125 433h195l-125 -433h-195zM420 -219l125 433h195l-125 -433h-195z" />
<glyph unicode="&#x2022;" horiz-adv-x="640" d="M190 603v260h260v-260h-260z" />
<glyph unicode="&#x2026;" horiz-adv-x="1720" d="M180 0v210h210v-210h-210zM745 0v210h210v-210h-210zM1310 0v210h210v-210h-210z" />
<glyph unicode="&#x202f;" horiz-adv-x="386" />
<glyph unicode="&#x2039;" horiz-adv-x="565" d="M75 623l254 365h186l-274 -365l274 -365h-185z" />
<glyph unicode="&#x203a;" horiz-adv-x="565" d="M50 258l274 365l-274 365h185l255 -365l-254 -365h-186z" />
<glyph unicode="&#x205f;" horiz-adv-x="483" />
<glyph unicode="&#x20ac;" horiz-adv-x="1335" d="M50 504v130h204l-3 74q0 76 10 140h-147v130h176q65 209 223.5 331t376.5 122q172 0 348 -76l-47 -141q-176 67 -313 67t-249.5 -82.5t-171.5 -220.5h451v-130h-491q-13 -65 -13 -123.5t4 -90.5h436v-130h-408q52 -163 178 -265.5t284 -102.5t310 60l47 -126 q-186 -90 -375 -90q-231 0 -393.5 143.5t-214.5 380.5h-222z" />
<glyph unicode="&#x2122;" horiz-adv-x="1424" d="M110 1431v80h448v-80h-175v-488h-98v488h-175zM690 943v568h116l172 -317l166 317h120v-568h-98v446l-160 -294h-68l-150 298v-450h-98z" />
<glyph unicode="&#xe000;" horiz-adv-x="990" d="M0 0v990h990v-990h-990z" />
<glyph unicode="&#xfb01;" horiz-adv-x="1344" d="M135 859v129h143v100q0 130 39 198.5t115 105.5t179.5 37t233.5 -39l-25 -122q-93 24 -155 24t-105 -16.5t-64.5 -38t-33.5 -51.5q-18 -43 -18 -91v-107h331v-129h-331v-859h-166v859h-143zM985 1232v189h194v-189h-194zM1000 0v988h164v-988h-164z" />
<glyph unicode="&#xfb02;" horiz-adv-x="1384" d="M135 859v129h143v100q0 130 39 198.5t115 105.5t179.5 37t233.5 -39l-25 -122q-93 24 -155 24t-105 -16.5t-64.5 -38t-33.5 -51.5q-18 -43 -18 -91v-107h331v-129h-331v-859h-166v859h-143zM1020 0v1511h164v-1511h-164z" />
<glyph unicode="&#xfb03;" horiz-adv-x="2164" d="M135 859v129h143v100q0 130 39 198.5t115 105.5t179.5 37t233.5 -39l-25 -122q-93 24 -155 24t-105 -16.5t-64.5 -38t-33.5 -51.5q-18 -43 -18 -91v-107h331v-129h-331v-859h-166v859h-143zM955 859v129h143v100q0 130 39 198.5t115 105.5t179.5 37t233.5 -39l-25 -122 q-93 24 -155 24t-105 -16.5t-64.5 -38t-33.5 -51.5q-18 -43 -18 -91v-107h331v-129h-331v-859h-166v859h-143zM1805 1232v189h194v-189h-194zM1820 0v988h164v-988h-164z" />
<glyph unicode="&#xfb04;" horiz-adv-x="2204" d="M135 859v129h143v100q0 130 39 198.5t115 105.5t179.5 37t233.5 -39l-25 -122q-93 24 -155 24t-105 -16.5t-64.5 -38t-33.5 -51.5q-18 -43 -18 -91v-107h331v-129h-331v-859h-166v859h-143zM955 859v129h143v100q0 130 39 198.5t115 105.5t179.5 37t233.5 -39l-25 -122 q-93 24 -155 24t-105 -16.5t-64.5 -38t-33.5 -51.5q-18 -43 -18 -91v-107h331v-129h-331v-859h-166v859h-143zM1840 0v1511h164v-1511h-164z" />
</font>
</defs>
</svg>
